M48
;DRILL file {KiCad 5.0.0-1.fc29} date Sat Aug 25 23:53:49 2018
;FORMAT={-:-/ absolute / metric / decimal}
FMAT,2
METRIC,TZ
T1C0.300
T2C0.400
T3C0.500
T4C0.550
T5C1.000
%
G90
G05
M71
T1
X60.909Y-114.3
X77.521Y-100.127
X79.146Y-112.827
X79.197Y-104.851
X79.299Y-119.939
X79.858Y-99.009
X82.52Y-104.881
X88.201Y-121.285
X91.288Y-92.71
X98.679Y-109.474
X98.806Y-98.552
X100.279Y-78.638
X109.169Y-80.874
X111.709Y-75.54
T2
X63.373Y-98.996
X64.008Y-105.981
X64.198Y-103.886
X66.421Y-99.504
X66.954Y-111.608
X67.107Y-114.198
X70.104Y-92.075
X70.358Y-121.412
X70.993Y-99.441
X71.222Y-116.332
X72.949Y-116.535
X73.152Y-117.754
X73.215Y-92.71
X73.85Y-98.298
X74.981Y-115.062
X75.438Y-87.439
X76.01Y-103.188
X76.073Y-92.075
X76.644Y-74.93
X77.025Y-85.979
X77.089Y-88.709
X80.899Y-90.551
X83.21Y-88.646
X86.309Y-85.7
X89.51Y-112.827
X92.011Y-103.632
X92.075Y-109.41
X93.472Y-103.632
X93.472Y-109.347
X96.876Y-78.74
X101.244Y-96.266
X101.346Y-89.764
X101.397Y-78.791
X102.616Y-79.146
X104.445Y-80.569
T5
X62.865Y-109.029
X65.405Y-109.029
X67.945Y-109.029
X70.485Y-109.029
X73.025Y-109.029
X75.565Y-109.029
X78.105Y-109.029
X72.834Y-86.677
X72.834Y-89.218
X112.776Y-89.535
X112.776Y-92.075
X112.776Y-94.615
X112.776Y-97.155
X88.328Y-75.565
X88.328Y-78.105
X100.457Y-118.618
X102.997Y-118.618
X105.537Y-118.618
X108.077Y-118.618
T3
X62.841Y-84.384G85X63.491Y-84.384
G05
X62.841Y-91.384G85X63.491Y-91.384
G05
T4
X65.866Y-85.234G85X65.866Y-85.534
G05
X65.866Y-90.234G85X65.866Y-90.534
G05
T0
M30
