G04 #@! TF.GenerationSoftware,KiCad,Pcbnew,5.0.0-1.fc29*
G04 #@! TF.CreationDate,2018-08-25T23:53:58+05:30*
G04 #@! TF.ProjectId,medlo,6D65646C6F2E6B696361645F70636200,rev?*
G04 #@! TF.SameCoordinates,Original*
G04 #@! TF.FileFunction,Soldermask,Top*
G04 #@! TF.FilePolarity,Negative*
%FSLAX46Y46*%
G04 Gerber Fmt 4.6, Leading zero omitted, Abs format (unit mm)*
G04 Created by KiCad (PCBNEW 5.0.0-1.fc29) date Sat Aug 25 23:53:58 2018*
%MOMM*%
%LPD*%
G01*
G04 APERTURE LIST*
%ADD10O,3.010000X1.510000*%
%ADD11R,1.800000X2.600000*%
%ADD12R,1.250000X1.500000*%
%ADD13R,1.500000X1.250000*%
%ADD14R,1.300000X1.500000*%
%ADD15R,1.500000X1.300000*%
%ADD16R,5.600000X2.300000*%
%ADD17R,1.350000X0.400000*%
%ADD18O,0.950000X1.250000*%
%ADD19O,1.550000X1.000000*%
%ADD20R,1.700000X1.700000*%
%ADD21O,1.700000X1.700000*%
%ADD22C,3.200000*%
%ADD23R,0.650000X0.400000*%
%ADD24C,0.900000*%
%ADD25R,1.500000X0.700000*%
%ADD26R,0.800000X1.000000*%
%ADD27R,1.450000X0.700000*%
%ADD28R,0.650000X1.560000*%
%ADD29R,1.560000X0.650000*%
%ADD30O,2.500000X0.900000*%
%ADD31O,0.900000X2.500000*%
%ADD32R,6.000000X6.000000*%
G04 APERTURE END LIST*
D10*
G04 #@! TO.C,BT1*
X72834500Y-86677500D03*
X72834500Y-89217500D03*
G04 #@! TD*
D11*
G04 #@! TO.C,C1*
X79311500Y-74944500D03*
X79311500Y-78344500D03*
G04 #@! TD*
D12*
G04 #@! TO.C,C2*
X66611500Y-101239000D03*
X66611500Y-103739000D03*
G04 #@! TD*
G04 #@! TO.C,C3*
X66738500Y-97643000D03*
X66738500Y-95143000D03*
G04 #@! TD*
G04 #@! TO.C,C4*
X68834000Y-120376000D03*
X68834000Y-117876000D03*
G04 #@! TD*
G04 #@! TO.C,C5*
X108712000Y-103753600D03*
X108712000Y-106253600D03*
G04 #@! TD*
D13*
G04 #@! TO.C,C6*
X98379600Y-74777600D03*
X95879600Y-74777600D03*
G04 #@! TD*
D12*
G04 #@! TO.C,C7*
X86766400Y-117622000D03*
X86766400Y-120122000D03*
G04 #@! TD*
G04 #@! TO.C,C8*
X111048800Y-103753600D03*
X111048800Y-106253600D03*
G04 #@! TD*
D13*
G04 #@! TO.C,C9*
X95828800Y-76657200D03*
X98328800Y-76657200D03*
G04 #@! TD*
D14*
G04 #@! TO.C,D1*
X83629500Y-74469000D03*
X83629500Y-77169000D03*
G04 #@! TD*
D15*
G04 #@! TO.C,D2*
X89899500Y-118173500D03*
X92599500Y-118173500D03*
G04 #@! TD*
G04 #@! TO.C,D3*
X89963000Y-120269000D03*
X92663000Y-120269000D03*
G04 #@! TD*
D16*
G04 #@! TO.C,F1*
X72644000Y-82313000D03*
X72644000Y-74913000D03*
G04 #@! TD*
D17*
G04 #@! TO.C,J1*
X65866000Y-86584000D03*
X65866000Y-87234000D03*
X65866000Y-87884000D03*
X65866000Y-88534000D03*
X65866000Y-89184000D03*
D18*
X65866000Y-85384000D03*
X65866000Y-90384000D03*
D19*
X63166000Y-84384000D03*
X63166000Y-91384000D03*
G04 #@! TD*
D20*
G04 #@! TO.C,J2*
X62865000Y-109029500D03*
D21*
X65405000Y-109029500D03*
X67945000Y-109029500D03*
X70485000Y-109029500D03*
X73025000Y-109029500D03*
X75565000Y-109029500D03*
X78105000Y-109029500D03*
G04 #@! TD*
D20*
G04 #@! TO.C,J3*
X88328500Y-78105000D03*
D21*
X88328500Y-75565000D03*
G04 #@! TD*
G04 #@! TO.C,J5*
X112776000Y-97155000D03*
X112776000Y-94615000D03*
X112776000Y-92075000D03*
D20*
X112776000Y-89535000D03*
G04 #@! TD*
G04 #@! TO.C,J6*
X100457000Y-118618000D03*
D21*
X102997000Y-118618000D03*
X105537000Y-118618000D03*
X108077000Y-118618000D03*
G04 #@! TD*
D22*
G04 #@! TO.C,MK1*
X64516000Y-76835000D03*
G04 #@! TD*
G04 #@! TO.C,MK2*
X117068600Y-77317600D03*
G04 #@! TD*
G04 #@! TO.C,MK3*
X117068600Y-117932200D03*
G04 #@! TD*
G04 #@! TO.C,MK4*
X64389000Y-117729000D03*
G04 #@! TD*
D23*
G04 #@! TO.C,Q1*
X73022500Y-120347500D03*
X73022500Y-119047500D03*
X71122500Y-119697500D03*
X73022500Y-119697500D03*
X71122500Y-119047500D03*
X71122500Y-120347500D03*
G04 #@! TD*
D15*
G04 #@! TO.C,R1*
X78025000Y-92011500D03*
X80725000Y-92011500D03*
G04 #@! TD*
D14*
G04 #@! TO.C,R2*
X83629500Y-79930000D03*
X83629500Y-82630000D03*
G04 #@! TD*
D15*
G04 #@! TO.C,R3*
X80915500Y-82740500D03*
X78215500Y-82740500D03*
G04 #@! TD*
D14*
G04 #@! TO.C,R4*
X69342000Y-103839000D03*
X69342000Y-101139000D03*
G04 #@! TD*
G04 #@! TO.C,R5*
X76073000Y-94471500D03*
X76073000Y-97171500D03*
G04 #@! TD*
G04 #@! TO.C,R6*
X68897500Y-114951500D03*
X68897500Y-112251500D03*
G04 #@! TD*
G04 #@! TO.C,R7*
X72644000Y-112061000D03*
X72644000Y-114761000D03*
G04 #@! TD*
D15*
G04 #@! TO.C,R8*
X62785000Y-112903000D03*
X65485000Y-112903000D03*
G04 #@! TD*
D14*
G04 #@! TO.C,R9*
X94932500Y-114791500D03*
X94932500Y-117491500D03*
G04 #@! TD*
G04 #@! TO.C,R10*
X97091500Y-114791500D03*
X97091500Y-117491500D03*
G04 #@! TD*
D24*
G04 #@! TO.C,SW1*
X61646000Y-98322000D03*
X61646000Y-101322000D03*
D25*
X63406000Y-97572000D03*
X63406000Y-100572000D03*
X63406000Y-102072000D03*
D26*
X60546000Y-96172000D03*
X60546000Y-103472000D03*
X62756000Y-103472000D03*
X62756000Y-96172000D03*
G04 #@! TD*
D27*
G04 #@! TO.C,SW2*
X81777200Y-112995200D03*
X76617200Y-112995200D03*
X76617200Y-114995200D03*
X81777200Y-114995200D03*
G04 #@! TD*
G04 #@! TO.C,SW3*
X76515600Y-118024400D03*
X81675600Y-118024400D03*
X81675600Y-120024400D03*
X76515600Y-120024400D03*
G04 #@! TD*
D28*
G04 #@! TO.C,T1*
X73596500Y-100377000D03*
X72646500Y-100377000D03*
X74546500Y-100377000D03*
X74546500Y-103077000D03*
X73596500Y-103077000D03*
X72646500Y-103077000D03*
G04 #@! TD*
G04 #@! TO.C,U1*
X78615500Y-88726000D03*
X79565500Y-88726000D03*
X80515500Y-88726000D03*
X80515500Y-86026000D03*
X78615500Y-86026000D03*
X79565500Y-86026000D03*
G04 #@! TD*
D29*
G04 #@! TO.C,U2*
X72978000Y-96073000D03*
X72978000Y-95123000D03*
X72978000Y-94173000D03*
X70278000Y-94173000D03*
X70278000Y-96073000D03*
X70278000Y-95123000D03*
G04 #@! TD*
D30*
G04 #@! TO.C,U3*
X85678500Y-104881500D03*
X85678500Y-103611500D03*
X85678500Y-102341500D03*
X85678500Y-101071500D03*
X85678500Y-99801500D03*
X85678500Y-98531500D03*
X85678500Y-97261500D03*
X85678500Y-95991500D03*
X85678500Y-94721500D03*
X85678500Y-93451500D03*
X85678500Y-92181500D03*
X85678500Y-90911500D03*
X85678500Y-89641500D03*
X85678500Y-88371500D03*
D31*
X88963500Y-86881500D03*
X90233500Y-86881500D03*
X91503500Y-86881500D03*
X92773500Y-86881500D03*
X94043500Y-86881500D03*
X95313500Y-86881500D03*
X96583500Y-86881500D03*
X97853500Y-86881500D03*
X99123500Y-86881500D03*
X100393500Y-86881500D03*
D30*
X103678500Y-88371500D03*
X103678500Y-89641500D03*
X103678500Y-90911500D03*
X103678500Y-92181500D03*
X103678500Y-93451500D03*
X103678500Y-94721500D03*
X103678500Y-95991500D03*
X103678500Y-97261500D03*
X103678500Y-98531500D03*
X103678500Y-99801500D03*
X103678500Y-101071500D03*
X103678500Y-102341500D03*
X103678500Y-103611500D03*
X103678500Y-104881500D03*
D32*
X94978500Y-97181500D03*
G04 #@! TD*
M02*
