G04 #@! TF.GenerationSoftware,KiCad,Pcbnew,5.0.0-1.fc29*
G04 #@! TF.CreationDate,2018-08-25T23:53:58+05:30*
G04 #@! TF.ProjectId,medlo,6D65646C6F2E6B696361645F70636200,rev?*
G04 #@! TF.SameCoordinates,Original*
G04 #@! TF.FileFunction,Copper,L2,Bot,Signal*
G04 #@! TF.FilePolarity,Positive*
%FSLAX46Y46*%
G04 Gerber Fmt 4.6, Leading zero omitted, Abs format (unit mm)*
G04 Created by KiCad (PCBNEW 5.0.0-1.fc29) date Sat Aug 25 23:53:58 2018*
%MOMM*%
%LPD*%
G01*
G04 APERTURE LIST*
G04 #@! TA.AperFunction,ComponentPad*
%ADD10O,3.010000X1.510000*%
G04 #@! TD*
G04 #@! TA.AperFunction,ComponentPad*
%ADD11O,0.950000X1.250000*%
G04 #@! TD*
G04 #@! TA.AperFunction,ComponentPad*
%ADD12O,1.550000X1.000000*%
G04 #@! TD*
G04 #@! TA.AperFunction,ComponentPad*
%ADD13R,1.700000X1.700000*%
G04 #@! TD*
G04 #@! TA.AperFunction,ComponentPad*
%ADD14O,1.700000X1.700000*%
G04 #@! TD*
G04 #@! TA.AperFunction,SMDPad,CuDef*
%ADD15R,1.450000X2.000000*%
G04 #@! TD*
G04 #@! TA.AperFunction,SMDPad,CuDef*
%ADD16R,0.800000X1.500000*%
G04 #@! TD*
G04 #@! TA.AperFunction,SMDPad,CuDef*
%ADD17R,0.800000X0.500000*%
G04 #@! TD*
G04 #@! TA.AperFunction,SMDPad,CuDef*
%ADD18R,0.800000X0.400000*%
G04 #@! TD*
G04 #@! TA.AperFunction,SMDPad,CuDef*
%ADD19R,1.500000X1.250000*%
G04 #@! TD*
G04 #@! TA.AperFunction,SMDPad,CuDef*
%ADD20R,1.060000X0.650000*%
G04 #@! TD*
G04 #@! TA.AperFunction,SMDPad,CuDef*
%ADD21R,3.200000X1.500000*%
G04 #@! TD*
G04 #@! TA.AperFunction,ViaPad*
%ADD22C,0.800000*%
G04 #@! TD*
G04 #@! TA.AperFunction,ViaPad*
%ADD23C,0.600000*%
G04 #@! TD*
G04 #@! TA.AperFunction,Conductor*
%ADD24C,0.500000*%
G04 #@! TD*
G04 #@! TA.AperFunction,Conductor*
%ADD25C,0.350000*%
G04 #@! TD*
G04 #@! TA.AperFunction,Conductor*
%ADD26C,0.250000*%
G04 #@! TD*
G04 #@! TA.AperFunction,Conductor*
%ADD27C,1.000000*%
G04 #@! TD*
G04 APERTURE END LIST*
D10*
G04 #@! TO.P,BT1,1*
G04 #@! TO.N,Net-(BT1-Pad1)*
X72834500Y-86677500D03*
G04 #@! TO.P,BT1,2*
G04 #@! TO.N,Net-(BT1-Pad2)*
X72834500Y-89217500D03*
G04 #@! TD*
D11*
G04 #@! TO.P,J1,6*
G04 #@! TO.N,Net-(J1-Pad6)*
X65866000Y-85384000D03*
X65866000Y-90384000D03*
D12*
X63166000Y-84384000D03*
X63166000Y-91384000D03*
G04 #@! TD*
D13*
G04 #@! TO.P,J2,1*
G04 #@! TO.N,VCC*
X62865000Y-109029500D03*
D14*
G04 #@! TO.P,J2,2*
G04 #@! TO.N,GND*
X65405000Y-109029500D03*
G04 #@! TO.P,J2,3*
G04 #@! TO.N,N/C*
X67945000Y-109029500D03*
G04 #@! TO.P,J2,4*
G04 #@! TO.N,TXD0*
X70485000Y-109029500D03*
G04 #@! TO.P,J2,5*
G04 #@! TO.N,RXD0*
X73025000Y-109029500D03*
G04 #@! TO.P,J2,6*
G04 #@! TO.N,DTR*
X75565000Y-109029500D03*
G04 #@! TO.P,J2,7*
G04 #@! TO.N,RST*
X78105000Y-109029500D03*
G04 #@! TD*
D13*
G04 #@! TO.P,J3,1*
G04 #@! TO.N,SD_MISO*
X88328500Y-78105000D03*
D14*
G04 #@! TO.P,J3,2*
G04 #@! TO.N,GND*
X88328500Y-75565000D03*
G04 #@! TD*
D15*
G04 #@! TO.P,J4,9*
G04 #@! TO.N,GND*
X93582000Y-74202000D03*
X107332000Y-74202000D03*
X107332000Y-82502000D03*
X93582000Y-82502000D03*
D16*
G04 #@! TO.P,J4,8*
G04 #@! TO.N,N/C*
X95957000Y-76802000D03*
G04 #@! TO.P,J4,7*
G04 #@! TO.N,SD_MISO*
X97057000Y-76802000D03*
G04 #@! TO.P,J4,6*
G04 #@! TO.N,GND*
X98157000Y-76802000D03*
G04 #@! TO.P,J4,5*
G04 #@! TO.N,SD_CLK*
X99257000Y-76802000D03*
G04 #@! TO.P,J4,4*
G04 #@! TO.N,VCC*
X100357000Y-76802000D03*
G04 #@! TO.P,J4,3*
G04 #@! TO.N,SD_MOSI*
X101457000Y-76802000D03*
G04 #@! TO.P,J4,2*
G04 #@! TO.N,SD_CS*
X102557000Y-76802000D03*
G04 #@! TO.P,J4,1*
G04 #@! TO.N,N/C*
X103657000Y-76802000D03*
G04 #@! TD*
D14*
G04 #@! TO.P,J5,4*
G04 #@! TO.N,SDA0*
X112776000Y-97155000D03*
G04 #@! TO.P,J5,3*
G04 #@! TO.N,SCL0*
X112776000Y-94615000D03*
G04 #@! TO.P,J5,2*
G04 #@! TO.N,GND*
X112776000Y-92075000D03*
D13*
G04 #@! TO.P,J5,1*
G04 #@! TO.N,VCC*
X112776000Y-89535000D03*
G04 #@! TD*
G04 #@! TO.P,J6,1*
G04 #@! TO.N,VCC*
X100457000Y-118618000D03*
D14*
G04 #@! TO.P,J6,2*
G04 #@! TO.N,GND*
X102997000Y-118618000D03*
G04 #@! TO.P,J6,3*
G04 #@! TO.N,SCL0*
X105537000Y-118618000D03*
G04 #@! TO.P,J6,4*
G04 #@! TO.N,SDA0*
X108077000Y-118618000D03*
G04 #@! TD*
D17*
G04 #@! TO.P,RN1,1*
G04 #@! TO.N,VCC*
X111644000Y-76879600D03*
D18*
G04 #@! TO.P,RN1,3*
X111644000Y-78479600D03*
G04 #@! TO.P,RN1,2*
X111644000Y-77679600D03*
D17*
G04 #@! TO.P,RN1,4*
X111644000Y-79279600D03*
D18*
G04 #@! TO.P,RN1,7*
G04 #@! TO.N,SD_CLK*
X109844000Y-77679600D03*
D17*
G04 #@! TO.P,RN1,8*
G04 #@! TO.N,SD_MISO*
X109844000Y-76879600D03*
D18*
G04 #@! TO.P,RN1,6*
G04 #@! TO.N,SD_MOSI*
X109844000Y-78479600D03*
D17*
G04 #@! TO.P,RN1,5*
G04 #@! TO.N,SD_CS*
X109844000Y-79279600D03*
G04 #@! TD*
D19*
G04 #@! TO.P,C10,1*
G04 #@! TO.N,GND*
X64917000Y-102235000D03*
G04 #@! TO.P,C10,2*
G04 #@! TO.N,Net-(C10-Pad2)*
X67417000Y-102235000D03*
G04 #@! TD*
D20*
G04 #@! TO.P,U4,1*
G04 #@! TO.N,Net-(C2-Pad1)*
X66337000Y-105915500D03*
G04 #@! TO.P,U4,2*
G04 #@! TO.N,GND*
X66337000Y-104965500D03*
G04 #@! TO.P,U4,3*
G04 #@! TO.N,Net-(C2-Pad1)*
X66337000Y-104015500D03*
G04 #@! TO.P,U4,4*
G04 #@! TO.N,Net-(C10-Pad2)*
X68537000Y-104015500D03*
G04 #@! TO.P,U4,5*
G04 #@! TO.N,VCC*
X68537000Y-105915500D03*
G04 #@! TD*
D21*
G04 #@! TO.P,C11,1*
G04 #@! TO.N,VCC*
X84613500Y-101917500D03*
G04 #@! TO.P,C11,2*
G04 #@! TO.N,GND*
X80613500Y-101917500D03*
G04 #@! TD*
D22*
G04 #@! TO.N,Net-(BT1-Pad1)*
X75438000Y-87439500D03*
X63373000Y-98996500D03*
G04 #@! TO.N,Net-(BT1-Pad2)*
X76073000Y-92075000D03*
X76009500Y-103187500D03*
X66421000Y-99504500D03*
G04 #@! TO.N,Net-(C1-Pad1)*
X77025500Y-85979000D03*
X76644500Y-74930000D03*
D23*
G04 #@! TO.N,VCC*
X98806000Y-98552000D03*
X77520800Y-100126800D03*
X79857600Y-99009200D03*
X98679000Y-109474000D03*
X111709200Y-75539600D03*
X100279200Y-78638400D03*
D22*
G04 #@! TO.N,GND*
X70993000Y-99441000D03*
X70104000Y-92075000D03*
D23*
X79298800Y-119938800D03*
X79146400Y-112826800D03*
X82519700Y-104881500D03*
X79197200Y-104851200D03*
X60909200Y-114300000D03*
X91287600Y-92710000D03*
X109169200Y-80873600D03*
X88201500Y-121285000D03*
D22*
G04 #@! TO.N,EN*
X70358000Y-121412000D03*
X67106800Y-114198400D03*
X74980800Y-115062000D03*
G04 #@! TO.N,BTN1*
X101244400Y-96266000D03*
X89509600Y-112826800D03*
G04 #@! TO.N,DTR*
X66954400Y-111607600D03*
X71221600Y-116332000D03*
G04 #@! TO.N,RST*
X72948800Y-116535200D03*
G04 #@! TO.N,SD_MISO*
X86309200Y-85699600D03*
X96875600Y-78740000D03*
G04 #@! TO.N,SD_CLK*
X101346000Y-89763600D03*
G04 #@! TO.N,SD_MOSI*
X101396800Y-78790800D03*
G04 #@! TO.N,SD_CS*
X102616000Y-79146400D03*
X104444800Y-80568800D03*
G04 #@! TO.N,GPIO0*
X83210400Y-88646000D03*
X73152000Y-117754400D03*
G04 #@! TO.N,Net-(R1-Pad1)*
X80899000Y-90551000D03*
X77089000Y-88709500D03*
G04 #@! TO.N,Net-(R9-Pad1)*
X92011500Y-103632000D03*
X92075000Y-109410500D03*
G04 #@! TO.N,Net-(R10-Pad1)*
X93472000Y-109347000D03*
X93472000Y-103632000D03*
G04 #@! TO.N,Net-(T1-Pad4)*
X73215500Y-92710000D03*
X73850500Y-98298000D03*
G04 #@! TO.N,Net-(C2-Pad1)*
X64008000Y-105981500D03*
X64198500Y-103886000D03*
G04 #@! TD*
D24*
G04 #@! TO.N,Net-(BT1-Pad1)*
X75438000Y-85153500D02*
X75438000Y-87439500D01*
X74422000Y-84137500D02*
X75438000Y-85153500D01*
X68770500Y-84137500D02*
X74422000Y-84137500D01*
X68580000Y-83947000D02*
X68770500Y-84137500D01*
X68580000Y-91059000D02*
X68580000Y-83947000D01*
X68580000Y-92710000D02*
X68580000Y-91059000D01*
X67945000Y-93345000D02*
X68580000Y-92710000D01*
X63627000Y-93345000D02*
X67945000Y-93345000D01*
X63373000Y-93599000D02*
X63627000Y-93345000D01*
X63373000Y-98996500D02*
X63373000Y-93599000D01*
G04 #@! TO.N,Net-(BT1-Pad2)*
X76073000Y-103124000D02*
X76073000Y-92075000D01*
X76009500Y-103187500D02*
X76073000Y-103124000D01*
X66421000Y-99504500D02*
X66611500Y-99695000D01*
X66611500Y-99695000D02*
X67437000Y-99695000D01*
X67437000Y-99695000D02*
X70929500Y-103187500D01*
X70929500Y-103187500D02*
X76009500Y-103187500D01*
G04 #@! TO.N,Net-(C1-Pad1)*
X77025500Y-85979000D02*
X76644500Y-85598000D01*
X76644500Y-85598000D02*
X76644500Y-74930000D01*
G04 #@! TO.N,VCC*
X77520800Y-104546400D02*
X77216000Y-104851200D01*
X77216000Y-105468500D02*
X77216000Y-104851200D01*
X76705500Y-105217000D02*
X77216000Y-105468500D01*
X68473500Y-105217000D02*
X76705500Y-105217000D01*
X79857600Y-99110800D02*
X79857600Y-99009200D01*
X80010000Y-98704400D02*
X79857600Y-99110800D01*
X98755200Y-98602800D02*
X84014197Y-98682697D01*
X84014197Y-98682697D02*
X80010000Y-98704400D01*
X98755200Y-98602800D02*
X98806000Y-98552000D01*
X77520800Y-100126800D02*
X77520800Y-104546400D01*
X98679000Y-109474000D02*
X98806000Y-109347000D01*
X98806000Y-109347000D02*
X98806000Y-98552000D01*
X111644000Y-79279600D02*
X111644000Y-78479600D01*
X111644000Y-78479600D02*
X111644000Y-77679600D01*
X111644000Y-77679600D02*
X111644000Y-77266800D01*
X111644000Y-77266800D02*
X111644000Y-76879600D01*
X100357000Y-76802000D02*
X100357000Y-78560600D01*
X111556800Y-77266800D02*
X111644000Y-77266800D01*
X111644000Y-77179600D02*
X111556800Y-77266800D01*
X111644000Y-75604800D02*
X111644000Y-77179600D01*
X111709200Y-75539600D02*
X111644000Y-75604800D01*
X100357000Y-78560600D02*
X100279200Y-78638400D01*
X98806000Y-98552000D02*
X98806000Y-92608400D01*
X98806000Y-92608400D02*
X100228400Y-91186000D01*
X100228400Y-91186000D02*
X109524800Y-91186000D01*
X109524800Y-91186000D02*
X111175800Y-89535000D01*
X111175800Y-89535000D02*
X112776000Y-89535000D01*
X68473500Y-105217000D02*
X68537000Y-107167500D01*
X64706500Y-107188000D02*
X62865000Y-109029500D01*
X68516500Y-107188000D02*
X64706500Y-107188000D01*
X68537000Y-107167500D02*
X68516500Y-107188000D01*
X84613500Y-101917500D02*
X84613500Y-99282000D01*
X84613500Y-99282000D02*
X84014197Y-98682697D01*
G04 #@! TO.N,GND*
X70231000Y-98679000D02*
X70993000Y-99441000D01*
X70231000Y-92202000D02*
X70231000Y-98679000D01*
X70104000Y-92075000D02*
X70231000Y-92202000D01*
X79298800Y-119938800D02*
X79146400Y-119786400D01*
X79146400Y-119786400D02*
X79146400Y-115925600D01*
X79146400Y-115925600D02*
X79146400Y-112826800D01*
X82600800Y-104851200D02*
X79197200Y-104851200D01*
X82600800Y-104851200D02*
X82519700Y-104881500D01*
X65405000Y-111429800D02*
X65405000Y-109029500D01*
X65227200Y-111607600D02*
X65405000Y-111429800D01*
X62433200Y-111607600D02*
X65227200Y-111607600D01*
X61417200Y-112623600D02*
X62128400Y-111912400D01*
X62128400Y-111912400D02*
X62433200Y-111607600D01*
X61417200Y-113792000D02*
X61417200Y-112623600D01*
X60909200Y-114300000D02*
X61417200Y-113792000D01*
X88328500Y-75565000D02*
X90246200Y-75565000D01*
X90246200Y-75565000D02*
X90424000Y-75742800D01*
X90424000Y-75742800D02*
X90424000Y-80365600D01*
X90424000Y-80365600D02*
X89001600Y-81788000D01*
X89001600Y-81788000D02*
X88747600Y-81788000D01*
X88747600Y-81788000D02*
X87833200Y-82702400D01*
X87833200Y-82702400D02*
X87833200Y-89255600D01*
X87833200Y-89255600D02*
X91287600Y-92710000D01*
X79146400Y-115925600D02*
X79349600Y-115925600D01*
X79349600Y-115925600D02*
X79146400Y-115925600D01*
X98157000Y-76802000D02*
X98157000Y-79795400D01*
X95450400Y-82502000D02*
X93582000Y-82502000D01*
X98157000Y-79795400D02*
X95450400Y-82502000D01*
X93582000Y-82502000D02*
X93582000Y-74202000D01*
X93582000Y-74202000D02*
X91964800Y-74202000D01*
X91964800Y-74202000D02*
X90424000Y-75742800D01*
X107332000Y-74202000D02*
X107332000Y-73346800D01*
X94632000Y-73152000D02*
X93582000Y-74202000D01*
X107137200Y-73152000D02*
X94632000Y-73152000D01*
X107332000Y-73346800D02*
X107137200Y-73152000D01*
X107332000Y-74202000D02*
X112962400Y-74202000D01*
X107332000Y-80865200D02*
X107332000Y-82502000D01*
X107289600Y-80822800D02*
X107332000Y-80865200D01*
X112674400Y-80822800D02*
X109118400Y-80822800D01*
X109118400Y-80822800D02*
X107289600Y-80822800D01*
X113131600Y-80365600D02*
X112674400Y-80822800D01*
X113131600Y-74371200D02*
X113131600Y-80365600D01*
X112962400Y-74202000D02*
X113131600Y-74371200D01*
X109169200Y-80873600D02*
X109118400Y-80822800D01*
X109118400Y-80822800D02*
X109118400Y-80873600D01*
X109118400Y-80873600D02*
X109118400Y-80822800D01*
X64917000Y-102235000D02*
X62865000Y-102235000D01*
X62865000Y-102235000D02*
X62738000Y-102362000D01*
X62738000Y-102362000D02*
X62738000Y-104584500D01*
X62738000Y-104584500D02*
X63119000Y-104965500D01*
X63119000Y-104965500D02*
X66337000Y-104965500D01*
X62128400Y-111912400D02*
X62128400Y-111531400D01*
X62166500Y-104965500D02*
X63119000Y-104965500D01*
X61150500Y-105981500D02*
X62166500Y-104965500D01*
X61150500Y-110553500D02*
X61150500Y-105981500D01*
X62128400Y-111531400D02*
X61150500Y-110553500D01*
X80613500Y-101917500D02*
X80613500Y-103434900D01*
X80613500Y-103434900D02*
X79197200Y-104851200D01*
X102997000Y-120713500D02*
X102997000Y-118618000D01*
X102362000Y-121348500D02*
X102997000Y-120713500D01*
X88265000Y-121348500D02*
X102362000Y-121348500D01*
X88201500Y-121285000D02*
X88265000Y-121348500D01*
D25*
G04 #@! TO.N,EN*
X70002400Y-121412000D02*
X70358000Y-121412000D01*
X68681600Y-120091200D02*
X70002400Y-121412000D01*
X68681600Y-114198400D02*
X68681600Y-120091200D01*
X67106800Y-114198400D02*
X68681600Y-114198400D01*
X73964800Y-121412000D02*
X70358000Y-121412000D01*
X74320400Y-121056400D02*
X73964800Y-121412000D01*
X74320400Y-115773200D02*
X74320400Y-121056400D01*
X74980800Y-115062000D02*
X74320400Y-115773200D01*
G04 #@! TO.N,BTN1*
X101244400Y-104749600D02*
X101244400Y-96266000D01*
X101295200Y-109626400D02*
X101244400Y-104749600D01*
X103174800Y-112826800D02*
X101295200Y-109626400D01*
X89509600Y-112826800D02*
X103174800Y-112826800D01*
G04 #@! TO.N,DTR*
X75565000Y-110617000D02*
X75565000Y-109029500D01*
X75133200Y-111048800D02*
X75565000Y-110617000D01*
X67513200Y-111048800D02*
X70510400Y-111048800D01*
X70510400Y-111048800D02*
X75133200Y-111048800D01*
X66954400Y-111607600D02*
X67513200Y-111048800D01*
X70510400Y-115620800D02*
X70510400Y-111048800D01*
X71221600Y-116332000D02*
X70510400Y-115620800D01*
G04 #@! TO.N,RST*
X78105000Y-110363000D02*
X78105000Y-109029500D01*
X77774800Y-110693200D02*
X78105000Y-110363000D01*
X76758800Y-110693200D02*
X77774800Y-110693200D01*
X75692000Y-111760000D02*
X76758800Y-110693200D01*
X73253600Y-111760000D02*
X75692000Y-111760000D01*
X72999600Y-112014000D02*
X73253600Y-111760000D01*
X72999600Y-116484400D02*
X72999600Y-112014000D01*
X72948800Y-116535200D02*
X72999600Y-116484400D01*
G04 #@! TO.N,SD_MISO*
X86156800Y-80276700D02*
X88328500Y-78105000D01*
X86156800Y-85547200D02*
X86156800Y-80276700D01*
X86309200Y-85699600D02*
X86156800Y-85547200D01*
X97057000Y-76802000D02*
X97057000Y-78406200D01*
X96875600Y-78587600D02*
X96875600Y-78740000D01*
X97057000Y-78406200D02*
X96875600Y-78587600D01*
X109844000Y-76879600D02*
X106343600Y-76879600D01*
X97057000Y-74400200D02*
X97057000Y-76802000D01*
X96926400Y-74269600D02*
X97057000Y-74400200D01*
X105664000Y-74269600D02*
X96926400Y-74269600D01*
X105765600Y-74371200D02*
X105664000Y-74269600D01*
X105765600Y-76301600D02*
X105765600Y-74371200D01*
X106343600Y-76879600D02*
X105765600Y-76301600D01*
G04 #@! TO.N,SD_CLK*
X99257000Y-79038600D02*
X99257000Y-76802000D01*
X99568000Y-79349600D02*
X99257000Y-79038600D01*
X99669600Y-79349600D02*
X99568000Y-79349600D01*
X101396800Y-81076800D02*
X99669600Y-79349600D01*
X101396800Y-89712800D02*
X101396800Y-81076800D01*
X101346000Y-89763600D02*
X101396800Y-89712800D01*
X109844000Y-77679600D02*
X105568800Y-77679600D01*
X99257000Y-75190200D02*
X99257000Y-76802000D01*
X99314000Y-75133200D02*
X99257000Y-75190200D01*
X104800400Y-75133200D02*
X99314000Y-75133200D01*
X104902000Y-75234800D02*
X104800400Y-75133200D01*
X104902000Y-77012800D02*
X104902000Y-75234800D01*
X105568800Y-77679600D02*
X104902000Y-77012800D01*
G04 #@! TO.N,SD_MOSI*
X101457000Y-78730600D02*
X101457000Y-76802000D01*
X101396800Y-78790800D02*
X101457000Y-78730600D01*
X109844000Y-78479600D02*
X105213200Y-78479600D01*
X101396800Y-79654400D02*
X101396800Y-78790800D01*
X102311200Y-80568800D02*
X101396800Y-79654400D01*
X103124000Y-80568800D02*
X102311200Y-80568800D01*
X105213200Y-78479600D02*
X103124000Y-80568800D01*
G04 #@! TO.N,SD_CS*
X102557000Y-79087400D02*
X102557000Y-76802000D01*
X102616000Y-79146400D02*
X102557000Y-79087400D01*
X109844000Y-79279600D02*
X105734000Y-79279600D01*
X105734000Y-79279600D02*
X104444800Y-80568800D01*
G04 #@! TO.N,SDA0*
X108077000Y-118618000D02*
X108077000Y-117221000D01*
X112776000Y-112522000D02*
X112776000Y-97155000D01*
X108077000Y-117221000D02*
X112776000Y-112522000D01*
G04 #@! TO.N,SCL0*
X112776000Y-94615000D02*
X111506000Y-94615000D01*
X107061000Y-117094000D02*
X105537000Y-118618000D01*
X107061000Y-116205000D02*
X107061000Y-117094000D01*
X111125000Y-112141000D02*
X107061000Y-116205000D01*
X111125000Y-94996000D02*
X111125000Y-112141000D01*
X111506000Y-94615000D02*
X111125000Y-94996000D01*
D26*
G04 #@! TO.N,GPIO0*
X83210400Y-91795600D02*
X83210400Y-88646000D01*
X82753200Y-92252800D02*
X83210400Y-91795600D01*
X77927200Y-92252800D02*
X82753200Y-92252800D01*
X78435200Y-92252800D02*
X77927200Y-92252800D01*
X78435200Y-105613200D02*
X78435200Y-92252800D01*
X78435200Y-105410000D02*
X78435200Y-105613200D01*
X78435200Y-105410000D02*
X78435200Y-105410000D01*
X73152000Y-117754400D02*
X73761600Y-117144800D01*
X73761600Y-117144800D02*
X73761600Y-113334800D01*
X73761600Y-113334800D02*
X74523600Y-112572800D01*
X74523600Y-112572800D02*
X76149200Y-112572800D01*
X76149200Y-112572800D02*
X77165200Y-111556800D01*
X77165200Y-111556800D02*
X79248000Y-111556800D01*
X79248000Y-111556800D02*
X79806800Y-110998000D01*
X79806800Y-110998000D02*
X79806800Y-106832400D01*
X79806800Y-106832400D02*
X79552800Y-106578400D01*
X79552800Y-106578400D02*
X78486000Y-106578400D01*
X78486000Y-106578400D02*
X78435200Y-106527600D01*
X78435200Y-106527600D02*
X78435200Y-105410000D01*
D25*
G04 #@! TO.N,Net-(R1-Pad1)*
X79121000Y-88773000D02*
X80899000Y-90551000D01*
X77152500Y-88773000D02*
X79121000Y-88773000D01*
X77089000Y-88709500D02*
X77152500Y-88773000D01*
G04 #@! TO.N,Net-(R9-Pad1)*
X92011500Y-109347000D02*
X92011500Y-103632000D01*
X92075000Y-109410500D02*
X92011500Y-109347000D01*
G04 #@! TO.N,Net-(R10-Pad1)*
X93472000Y-103632000D02*
X93472000Y-109347000D01*
G04 #@! TO.N,Net-(T1-Pad4)*
X73215500Y-97663000D02*
X73215500Y-92710000D01*
X73850500Y-98298000D02*
X73215500Y-97663000D01*
G04 #@! TO.N,Net-(C2-Pad1)*
X66337000Y-105915500D02*
X64074000Y-105915500D01*
X64074000Y-105915500D02*
X64008000Y-105981500D01*
X66337000Y-104015500D02*
X64328000Y-104015500D01*
X64328000Y-104015500D02*
X64198500Y-103886000D01*
G04 #@! TO.N,Net-(C10-Pad2)*
X67417000Y-102235000D02*
X67627500Y-102235000D01*
X68537000Y-103144500D02*
X68537000Y-104015500D01*
X67627500Y-102235000D02*
X68537000Y-103144500D01*
G04 #@! TD*
D27*
G04 #@! TO.N,GND*
G36*
X120001322Y-76297127D02*
X119696653Y-75561591D01*
X118824609Y-74689547D01*
X117685228Y-74217600D01*
X116451972Y-74217600D01*
X115312591Y-74689547D01*
X114440547Y-75561591D01*
X113968600Y-76700972D01*
X113968600Y-77934228D01*
X114440547Y-79073609D01*
X115312591Y-79945653D01*
X116451972Y-80417600D01*
X117685228Y-80417600D01*
X118824609Y-79945653D01*
X119696653Y-79073609D01*
X119995092Y-78353114D01*
X119879141Y-116616757D01*
X119696653Y-116176191D01*
X118824609Y-115304147D01*
X117685228Y-114832200D01*
X116451972Y-114832200D01*
X115312591Y-115304147D01*
X114440547Y-116176191D01*
X113968600Y-117315572D01*
X113968600Y-118548828D01*
X114440547Y-119688209D01*
X115312591Y-120560253D01*
X115683167Y-120713751D01*
X109190468Y-120700325D01*
X109771255Y-120312255D01*
X110290651Y-119534924D01*
X110473039Y-118618000D01*
X110290651Y-117701076D01*
X110160506Y-117506301D01*
X113843751Y-113823057D01*
X113983608Y-113729608D01*
X114353815Y-113175553D01*
X114451000Y-112686972D01*
X114451000Y-112686971D01*
X114483815Y-112522000D01*
X114451000Y-112357028D01*
X114451000Y-98862121D01*
X114470255Y-98849255D01*
X114989651Y-98071924D01*
X115172039Y-97155000D01*
X114989651Y-96238076D01*
X114753733Y-95885000D01*
X114989651Y-95531924D01*
X115172039Y-94615000D01*
X114989651Y-93698076D01*
X114808042Y-93426278D01*
X115169485Y-92598205D01*
X115187511Y-92507569D01*
X114825390Y-92125000D01*
X112826000Y-92125000D01*
X112826000Y-92145000D01*
X112726000Y-92145000D01*
X112726000Y-92125000D01*
X112706000Y-92125000D01*
X112706000Y-92025000D01*
X112726000Y-92025000D01*
X112726000Y-92005000D01*
X112826000Y-92005000D01*
X112826000Y-92025000D01*
X114825390Y-92025000D01*
X115187511Y-91642431D01*
X115169485Y-91551795D01*
X114964381Y-91081898D01*
X115038968Y-90970271D01*
X115155386Y-90385000D01*
X115155386Y-88685000D01*
X115038968Y-88099729D01*
X114707439Y-87603561D01*
X114211271Y-87272032D01*
X113626000Y-87155614D01*
X111926000Y-87155614D01*
X111340729Y-87272032D01*
X110844561Y-87603561D01*
X110680391Y-87849259D01*
X110492984Y-87886537D01*
X109914121Y-88273321D01*
X109816488Y-88419439D01*
X108799927Y-89436000D01*
X103246000Y-89436000D01*
X103246000Y-89385667D01*
X103071800Y-88965111D01*
X103071800Y-82952000D01*
X105007000Y-82952000D01*
X105007000Y-83820260D01*
X105250585Y-84408327D01*
X105700673Y-84858414D01*
X106288740Y-85102000D01*
X106882000Y-85102000D01*
X107282000Y-84702000D01*
X107282000Y-82552000D01*
X107382000Y-82552000D01*
X107382000Y-84702000D01*
X107782000Y-85102000D01*
X108375260Y-85102000D01*
X108963327Y-84858414D01*
X109413415Y-84408327D01*
X109657000Y-83820260D01*
X109657000Y-82952000D01*
X109257000Y-82552000D01*
X107382000Y-82552000D01*
X107282000Y-82552000D01*
X105407000Y-82552000D01*
X105007000Y-82952000D01*
X103071800Y-82952000D01*
X103071800Y-82266232D01*
X103124000Y-82276615D01*
X103288971Y-82243800D01*
X103288972Y-82243800D01*
X103447528Y-82212261D01*
X104066867Y-82468800D01*
X104822733Y-82468800D01*
X105247751Y-82292751D01*
X105407000Y-82452000D01*
X107282000Y-82452000D01*
X107282000Y-82432000D01*
X107382000Y-82432000D01*
X107382000Y-82452000D01*
X109257000Y-82452000D01*
X109657000Y-82052000D01*
X109657000Y-81183740D01*
X109605325Y-81058986D01*
X110244000Y-81058986D01*
X110744000Y-80959530D01*
X111244000Y-81058986D01*
X111619376Y-81058986D01*
X111644000Y-81063884D01*
X111668624Y-81058986D01*
X112044000Y-81058986D01*
X112629271Y-80942568D01*
X113125439Y-80611039D01*
X113456968Y-80114871D01*
X113573386Y-79529600D01*
X113573386Y-79029600D01*
X113538576Y-78854600D01*
X113573386Y-78679600D01*
X113573386Y-78279600D01*
X113533603Y-78079600D01*
X113573386Y-77879600D01*
X113573386Y-77479600D01*
X113538576Y-77304600D01*
X113573386Y-77129600D01*
X113573386Y-76629600D01*
X113456968Y-76044329D01*
X113451704Y-76036450D01*
X113509200Y-75897642D01*
X113509200Y-75181558D01*
X113235166Y-74519982D01*
X112728818Y-74013634D01*
X112067242Y-73739600D01*
X111351158Y-73739600D01*
X110689582Y-74013634D01*
X110183234Y-74519982D01*
X110051266Y-74838580D01*
X109995537Y-74921985D01*
X109975967Y-75020367D01*
X109942894Y-75100214D01*
X109657000Y-75100214D01*
X109657000Y-74652000D01*
X109257000Y-74252000D01*
X107449705Y-74252000D01*
X107429813Y-74152000D01*
X109257000Y-74152000D01*
X109657000Y-73752000D01*
X109657000Y-73533600D01*
X120009696Y-73533600D01*
X120001322Y-76297127D01*
X120001322Y-76297127D01*
G37*
X120001322Y-76297127D02*
X119696653Y-75561591D01*
X118824609Y-74689547D01*
X117685228Y-74217600D01*
X116451972Y-74217600D01*
X115312591Y-74689547D01*
X114440547Y-75561591D01*
X113968600Y-76700972D01*
X113968600Y-77934228D01*
X114440547Y-79073609D01*
X115312591Y-79945653D01*
X116451972Y-80417600D01*
X117685228Y-80417600D01*
X118824609Y-79945653D01*
X119696653Y-79073609D01*
X119995092Y-78353114D01*
X119879141Y-116616757D01*
X119696653Y-116176191D01*
X118824609Y-115304147D01*
X117685228Y-114832200D01*
X116451972Y-114832200D01*
X115312591Y-115304147D01*
X114440547Y-116176191D01*
X113968600Y-117315572D01*
X113968600Y-118548828D01*
X114440547Y-119688209D01*
X115312591Y-120560253D01*
X115683167Y-120713751D01*
X109190468Y-120700325D01*
X109771255Y-120312255D01*
X110290651Y-119534924D01*
X110473039Y-118618000D01*
X110290651Y-117701076D01*
X110160506Y-117506301D01*
X113843751Y-113823057D01*
X113983608Y-113729608D01*
X114353815Y-113175553D01*
X114451000Y-112686972D01*
X114451000Y-112686971D01*
X114483815Y-112522000D01*
X114451000Y-112357028D01*
X114451000Y-98862121D01*
X114470255Y-98849255D01*
X114989651Y-98071924D01*
X115172039Y-97155000D01*
X114989651Y-96238076D01*
X114753733Y-95885000D01*
X114989651Y-95531924D01*
X115172039Y-94615000D01*
X114989651Y-93698076D01*
X114808042Y-93426278D01*
X115169485Y-92598205D01*
X115187511Y-92507569D01*
X114825390Y-92125000D01*
X112826000Y-92125000D01*
X112826000Y-92145000D01*
X112726000Y-92145000D01*
X112726000Y-92125000D01*
X112706000Y-92125000D01*
X112706000Y-92025000D01*
X112726000Y-92025000D01*
X112726000Y-92005000D01*
X112826000Y-92005000D01*
X112826000Y-92025000D01*
X114825390Y-92025000D01*
X115187511Y-91642431D01*
X115169485Y-91551795D01*
X114964381Y-91081898D01*
X115038968Y-90970271D01*
X115155386Y-90385000D01*
X115155386Y-88685000D01*
X115038968Y-88099729D01*
X114707439Y-87603561D01*
X114211271Y-87272032D01*
X113626000Y-87155614D01*
X111926000Y-87155614D01*
X111340729Y-87272032D01*
X110844561Y-87603561D01*
X110680391Y-87849259D01*
X110492984Y-87886537D01*
X109914121Y-88273321D01*
X109816488Y-88419439D01*
X108799927Y-89436000D01*
X103246000Y-89436000D01*
X103246000Y-89385667D01*
X103071800Y-88965111D01*
X103071800Y-82952000D01*
X105007000Y-82952000D01*
X105007000Y-83820260D01*
X105250585Y-84408327D01*
X105700673Y-84858414D01*
X106288740Y-85102000D01*
X106882000Y-85102000D01*
X107282000Y-84702000D01*
X107282000Y-82552000D01*
X107382000Y-82552000D01*
X107382000Y-84702000D01*
X107782000Y-85102000D01*
X108375260Y-85102000D01*
X108963327Y-84858414D01*
X109413415Y-84408327D01*
X109657000Y-83820260D01*
X109657000Y-82952000D01*
X109257000Y-82552000D01*
X107382000Y-82552000D01*
X107282000Y-82552000D01*
X105407000Y-82552000D01*
X105007000Y-82952000D01*
X103071800Y-82952000D01*
X103071800Y-82266232D01*
X103124000Y-82276615D01*
X103288971Y-82243800D01*
X103288972Y-82243800D01*
X103447528Y-82212261D01*
X104066867Y-82468800D01*
X104822733Y-82468800D01*
X105247751Y-82292751D01*
X105407000Y-82452000D01*
X107282000Y-82452000D01*
X107282000Y-82432000D01*
X107382000Y-82432000D01*
X107382000Y-82452000D01*
X109257000Y-82452000D01*
X109657000Y-82052000D01*
X109657000Y-81183740D01*
X109605325Y-81058986D01*
X110244000Y-81058986D01*
X110744000Y-80959530D01*
X111244000Y-81058986D01*
X111619376Y-81058986D01*
X111644000Y-81063884D01*
X111668624Y-81058986D01*
X112044000Y-81058986D01*
X112629271Y-80942568D01*
X113125439Y-80611039D01*
X113456968Y-80114871D01*
X113573386Y-79529600D01*
X113573386Y-79029600D01*
X113538576Y-78854600D01*
X113573386Y-78679600D01*
X113573386Y-78279600D01*
X113533603Y-78079600D01*
X113573386Y-77879600D01*
X113573386Y-77479600D01*
X113538576Y-77304600D01*
X113573386Y-77129600D01*
X113573386Y-76629600D01*
X113456968Y-76044329D01*
X113451704Y-76036450D01*
X113509200Y-75897642D01*
X113509200Y-75181558D01*
X113235166Y-74519982D01*
X112728818Y-74013634D01*
X112067242Y-73739600D01*
X111351158Y-73739600D01*
X110689582Y-74013634D01*
X110183234Y-74519982D01*
X110051266Y-74838580D01*
X109995537Y-74921985D01*
X109975967Y-75020367D01*
X109942894Y-75100214D01*
X109657000Y-75100214D01*
X109657000Y-74652000D01*
X109257000Y-74252000D01*
X107449705Y-74252000D01*
X107429813Y-74152000D01*
X109257000Y-74152000D01*
X109657000Y-73752000D01*
X109657000Y-73533600D01*
X120009696Y-73533600D01*
X120001322Y-76297127D01*
G36*
X103068420Y-120687665D02*
X103047002Y-120687621D01*
X103047002Y-120667392D01*
X103068420Y-120687665D01*
X103068420Y-120687665D01*
G37*
X103068420Y-120687665D02*
X103047002Y-120687621D01*
X103047002Y-120667392D01*
X103068420Y-120687665D01*
G36*
X102946998Y-120687415D02*
X102925891Y-120687371D01*
X102946998Y-120667392D01*
X102946998Y-120687415D01*
X102946998Y-120687415D01*
G37*
X102946998Y-120687415D02*
X102925891Y-120687371D01*
X102946998Y-120667392D01*
X102946998Y-120687415D01*
G36*
X110636969Y-93181163D02*
X110298392Y-93407392D01*
X110204940Y-93547253D01*
X110057253Y-93694940D01*
X109917392Y-93788392D01*
X109547185Y-94342448D01*
X109475427Y-94703198D01*
X109417185Y-94996000D01*
X109450000Y-95160971D01*
X109450001Y-111447192D01*
X105993253Y-114903940D01*
X105853392Y-114997392D01*
X105483185Y-115551448D01*
X105483185Y-115551449D01*
X105353185Y-116205000D01*
X105365717Y-116268000D01*
X105305547Y-116268000D01*
X104620076Y-116404349D01*
X104348278Y-116585958D01*
X103520205Y-116224515D01*
X103429569Y-116206489D01*
X103047000Y-116568610D01*
X103047000Y-118568000D01*
X103067000Y-118568000D01*
X103067000Y-118668000D01*
X103047000Y-118668000D01*
X103047000Y-118688000D01*
X102947000Y-118688000D01*
X102947000Y-118668000D01*
X102927000Y-118668000D01*
X102927000Y-118568000D01*
X102947000Y-118568000D01*
X102947000Y-116568610D01*
X102564431Y-116206489D01*
X102473795Y-116224515D01*
X102003898Y-116429619D01*
X101892271Y-116355032D01*
X101307000Y-116238614D01*
X99607000Y-116238614D01*
X99021729Y-116355032D01*
X98525561Y-116686561D01*
X98194032Y-117182729D01*
X98077614Y-117768000D01*
X98077614Y-119468000D01*
X98194032Y-120053271D01*
X98525561Y-120549439D01*
X98718971Y-120678672D01*
X75995400Y-120631683D01*
X75995400Y-116698284D01*
X76057063Y-116672742D01*
X76591542Y-116138263D01*
X76880800Y-115439933D01*
X76880800Y-114684067D01*
X76651206Y-114129780D01*
X76783243Y-114103516D01*
X77320759Y-113744359D01*
X77411419Y-113608677D01*
X77838296Y-113181800D01*
X79087960Y-113181800D01*
X79248000Y-113213634D01*
X79408040Y-113181800D01*
X79408045Y-113181800D01*
X79882043Y-113087516D01*
X80419559Y-112728359D01*
X80510219Y-112592677D01*
X80842678Y-112260218D01*
X80978359Y-112169559D01*
X81337516Y-111632043D01*
X81431800Y-111158045D01*
X81431800Y-111158042D01*
X81463634Y-110998000D01*
X81431800Y-110837958D01*
X81431800Y-106992440D01*
X81463634Y-106832399D01*
X81431800Y-106672359D01*
X81431800Y-106672355D01*
X81337516Y-106198357D01*
X80978359Y-105660841D01*
X80842677Y-105570181D01*
X80815019Y-105542523D01*
X80724359Y-105406841D01*
X80186843Y-105047684D01*
X80060200Y-105022493D01*
X80060200Y-104267500D01*
X80163500Y-104267500D01*
X80563500Y-103867500D01*
X80563500Y-101967500D01*
X80543500Y-101967500D01*
X80543500Y-101867500D01*
X80563500Y-101867500D01*
X80563500Y-101847500D01*
X80663500Y-101847500D01*
X80663500Y-101867500D01*
X80683500Y-101867500D01*
X80683500Y-101967500D01*
X80663500Y-101967500D01*
X80663500Y-103867500D01*
X81063500Y-104267500D01*
X82531760Y-104267500D01*
X82803218Y-104155058D01*
X83013500Y-104196886D01*
X86213500Y-104196886D01*
X86798771Y-104080468D01*
X87294939Y-103748939D01*
X87626468Y-103252771D01*
X87742886Y-102667500D01*
X87742886Y-101167500D01*
X87626468Y-100582229D01*
X87513896Y-100413754D01*
X97056001Y-100362035D01*
X97056000Y-108688642D01*
X96879000Y-109115958D01*
X96879000Y-109832042D01*
X97153034Y-110493618D01*
X97659382Y-110999966D01*
X98025941Y-111151800D01*
X94079766Y-111151800D01*
X94548263Y-110957742D01*
X95082742Y-110423263D01*
X95372000Y-109724933D01*
X95372000Y-108969067D01*
X95147000Y-108425869D01*
X95147000Y-104553131D01*
X95372000Y-104009933D01*
X95372000Y-103254067D01*
X95082742Y-102555737D01*
X94548263Y-102021258D01*
X93849933Y-101732000D01*
X93094067Y-101732000D01*
X92741750Y-101877935D01*
X92389433Y-101732000D01*
X91633567Y-101732000D01*
X90935237Y-102021258D01*
X90400758Y-102555737D01*
X90111500Y-103254067D01*
X90111500Y-104009933D01*
X90336501Y-104553133D01*
X90336500Y-108642671D01*
X90175000Y-109032567D01*
X90175000Y-109788433D01*
X90464258Y-110486763D01*
X90998737Y-111021242D01*
X91313932Y-111151800D01*
X90430731Y-111151800D01*
X89887533Y-110926800D01*
X89131667Y-110926800D01*
X88433337Y-111216058D01*
X87898858Y-111750537D01*
X87609600Y-112448867D01*
X87609600Y-113204733D01*
X87898858Y-113903063D01*
X88433337Y-114437542D01*
X89131667Y-114726800D01*
X89887533Y-114726800D01*
X90430731Y-114501800D01*
X103126208Y-114501800D01*
X103410290Y-114518300D01*
X103615376Y-114446979D01*
X103828353Y-114404615D01*
X103927292Y-114338506D01*
X104039674Y-114299424D01*
X104201852Y-114155051D01*
X104382408Y-114034408D01*
X104448519Y-113935466D01*
X104537389Y-113856353D01*
X104631975Y-113660903D01*
X104752615Y-113480353D01*
X104775829Y-113363651D01*
X104827662Y-113256544D01*
X104840253Y-113039770D01*
X104882615Y-112826800D01*
X104859401Y-112710094D01*
X104866300Y-112591309D01*
X104794978Y-112386220D01*
X104752615Y-112173247D01*
X104594514Y-111936631D01*
X102965462Y-109162841D01*
X102919400Y-104740949D01*
X102919400Y-97187131D01*
X103144400Y-96643933D01*
X103144400Y-95888067D01*
X102855142Y-95189737D01*
X102320663Y-94655258D01*
X101622333Y-94366000D01*
X100866467Y-94366000D01*
X100556000Y-94494600D01*
X100556000Y-93333273D01*
X100953274Y-92936000D01*
X109352447Y-92936000D01*
X109524800Y-92970283D01*
X109697153Y-92936000D01*
X109697157Y-92936000D01*
X110207616Y-92834463D01*
X110422862Y-92690640D01*
X110636969Y-93181163D01*
X110636969Y-93181163D01*
G37*
X110636969Y-93181163D02*
X110298392Y-93407392D01*
X110204940Y-93547253D01*
X110057253Y-93694940D01*
X109917392Y-93788392D01*
X109547185Y-94342448D01*
X109475427Y-94703198D01*
X109417185Y-94996000D01*
X109450000Y-95160971D01*
X109450001Y-111447192D01*
X105993253Y-114903940D01*
X105853392Y-114997392D01*
X105483185Y-115551448D01*
X105483185Y-115551449D01*
X105353185Y-116205000D01*
X105365717Y-116268000D01*
X105305547Y-116268000D01*
X104620076Y-116404349D01*
X104348278Y-116585958D01*
X103520205Y-116224515D01*
X103429569Y-116206489D01*
X103047000Y-116568610D01*
X103047000Y-118568000D01*
X103067000Y-118568000D01*
X103067000Y-118668000D01*
X103047000Y-118668000D01*
X103047000Y-118688000D01*
X102947000Y-118688000D01*
X102947000Y-118668000D01*
X102927000Y-118668000D01*
X102927000Y-118568000D01*
X102947000Y-118568000D01*
X102947000Y-116568610D01*
X102564431Y-116206489D01*
X102473795Y-116224515D01*
X102003898Y-116429619D01*
X101892271Y-116355032D01*
X101307000Y-116238614D01*
X99607000Y-116238614D01*
X99021729Y-116355032D01*
X98525561Y-116686561D01*
X98194032Y-117182729D01*
X98077614Y-117768000D01*
X98077614Y-119468000D01*
X98194032Y-120053271D01*
X98525561Y-120549439D01*
X98718971Y-120678672D01*
X75995400Y-120631683D01*
X75995400Y-116698284D01*
X76057063Y-116672742D01*
X76591542Y-116138263D01*
X76880800Y-115439933D01*
X76880800Y-114684067D01*
X76651206Y-114129780D01*
X76783243Y-114103516D01*
X77320759Y-113744359D01*
X77411419Y-113608677D01*
X77838296Y-113181800D01*
X79087960Y-113181800D01*
X79248000Y-113213634D01*
X79408040Y-113181800D01*
X79408045Y-113181800D01*
X79882043Y-113087516D01*
X80419559Y-112728359D01*
X80510219Y-112592677D01*
X80842678Y-112260218D01*
X80978359Y-112169559D01*
X81337516Y-111632043D01*
X81431800Y-111158045D01*
X81431800Y-111158042D01*
X81463634Y-110998000D01*
X81431800Y-110837958D01*
X81431800Y-106992440D01*
X81463634Y-106832399D01*
X81431800Y-106672359D01*
X81431800Y-106672355D01*
X81337516Y-106198357D01*
X80978359Y-105660841D01*
X80842677Y-105570181D01*
X80815019Y-105542523D01*
X80724359Y-105406841D01*
X80186843Y-105047684D01*
X80060200Y-105022493D01*
X80060200Y-104267500D01*
X80163500Y-104267500D01*
X80563500Y-103867500D01*
X80563500Y-101967500D01*
X80543500Y-101967500D01*
X80543500Y-101867500D01*
X80563500Y-101867500D01*
X80563500Y-101847500D01*
X80663500Y-101847500D01*
X80663500Y-101867500D01*
X80683500Y-101867500D01*
X80683500Y-101967500D01*
X80663500Y-101967500D01*
X80663500Y-103867500D01*
X81063500Y-104267500D01*
X82531760Y-104267500D01*
X82803218Y-104155058D01*
X83013500Y-104196886D01*
X86213500Y-104196886D01*
X86798771Y-104080468D01*
X87294939Y-103748939D01*
X87626468Y-103252771D01*
X87742886Y-102667500D01*
X87742886Y-101167500D01*
X87626468Y-100582229D01*
X87513896Y-100413754D01*
X97056001Y-100362035D01*
X97056000Y-108688642D01*
X96879000Y-109115958D01*
X96879000Y-109832042D01*
X97153034Y-110493618D01*
X97659382Y-110999966D01*
X98025941Y-111151800D01*
X94079766Y-111151800D01*
X94548263Y-110957742D01*
X95082742Y-110423263D01*
X95372000Y-109724933D01*
X95372000Y-108969067D01*
X95147000Y-108425869D01*
X95147000Y-104553131D01*
X95372000Y-104009933D01*
X95372000Y-103254067D01*
X95082742Y-102555737D01*
X94548263Y-102021258D01*
X93849933Y-101732000D01*
X93094067Y-101732000D01*
X92741750Y-101877935D01*
X92389433Y-101732000D01*
X91633567Y-101732000D01*
X90935237Y-102021258D01*
X90400758Y-102555737D01*
X90111500Y-103254067D01*
X90111500Y-104009933D01*
X90336501Y-104553133D01*
X90336500Y-108642671D01*
X90175000Y-109032567D01*
X90175000Y-109788433D01*
X90464258Y-110486763D01*
X90998737Y-111021242D01*
X91313932Y-111151800D01*
X90430731Y-111151800D01*
X89887533Y-110926800D01*
X89131667Y-110926800D01*
X88433337Y-111216058D01*
X87898858Y-111750537D01*
X87609600Y-112448867D01*
X87609600Y-113204733D01*
X87898858Y-113903063D01*
X88433337Y-114437542D01*
X89131667Y-114726800D01*
X89887533Y-114726800D01*
X90430731Y-114501800D01*
X103126208Y-114501800D01*
X103410290Y-114518300D01*
X103615376Y-114446979D01*
X103828353Y-114404615D01*
X103927292Y-114338506D01*
X104039674Y-114299424D01*
X104201852Y-114155051D01*
X104382408Y-114034408D01*
X104448519Y-113935466D01*
X104537389Y-113856353D01*
X104631975Y-113660903D01*
X104752615Y-113480353D01*
X104775829Y-113363651D01*
X104827662Y-113256544D01*
X104840253Y-113039770D01*
X104882615Y-112826800D01*
X104859401Y-112710094D01*
X104866300Y-112591309D01*
X104794978Y-112386220D01*
X104752615Y-112173247D01*
X104594514Y-111936631D01*
X102965462Y-109162841D01*
X102919400Y-104740949D01*
X102919400Y-97187131D01*
X103144400Y-96643933D01*
X103144400Y-95888067D01*
X102855142Y-95189737D01*
X102320663Y-94655258D01*
X101622333Y-94366000D01*
X100866467Y-94366000D01*
X100556000Y-94494600D01*
X100556000Y-93333273D01*
X100953274Y-92936000D01*
X109352447Y-92936000D01*
X109524800Y-92970283D01*
X109697153Y-92936000D01*
X109697157Y-92936000D01*
X110207616Y-92834463D01*
X110422862Y-92690640D01*
X110636969Y-93181163D01*
G36*
X64881795Y-111422985D02*
X64972431Y-111441011D01*
X65054400Y-111363423D01*
X65054400Y-111985533D01*
X65343658Y-112683863D01*
X65638995Y-112979200D01*
X65496058Y-113122137D01*
X65206800Y-113820467D01*
X65206800Y-114576333D01*
X65274798Y-114740494D01*
X65005628Y-114629000D01*
X63772372Y-114629000D01*
X62632991Y-115100947D01*
X61760947Y-115972991D01*
X61557500Y-116464156D01*
X61557500Y-111317883D01*
X62015000Y-111408886D01*
X63715000Y-111408886D01*
X64300271Y-111292468D01*
X64411898Y-111217881D01*
X64881795Y-111422985D01*
X64881795Y-111422985D01*
G37*
X64881795Y-111422985D02*
X64972431Y-111441011D01*
X65054400Y-111363423D01*
X65054400Y-111985533D01*
X65343658Y-112683863D01*
X65638995Y-112979200D01*
X65496058Y-113122137D01*
X65206800Y-113820467D01*
X65206800Y-114576333D01*
X65274798Y-114740494D01*
X65005628Y-114629000D01*
X63772372Y-114629000D01*
X62632991Y-115100947D01*
X61760947Y-115972991D01*
X61557500Y-116464156D01*
X61557500Y-111317883D01*
X62015000Y-111408886D01*
X63715000Y-111408886D01*
X64300271Y-111292468D01*
X64411898Y-111217881D01*
X64881795Y-111422985D01*
G36*
X65455000Y-108979500D02*
X65475000Y-108979500D01*
X65475000Y-109079500D01*
X65455000Y-109079500D01*
X65455000Y-109099500D01*
X65355000Y-109099500D01*
X65355000Y-109079500D01*
X65335000Y-109079500D01*
X65335000Y-109034374D01*
X65409874Y-108959500D01*
X65455000Y-108959500D01*
X65455000Y-108979500D01*
X65455000Y-108979500D01*
G37*
X65455000Y-108979500D02*
X65475000Y-108979500D01*
X65475000Y-109079500D01*
X65455000Y-109079500D01*
X65455000Y-109099500D01*
X65355000Y-109099500D01*
X65355000Y-109079500D01*
X65335000Y-109079500D01*
X65335000Y-109034374D01*
X65409874Y-108959500D01*
X65455000Y-108959500D01*
X65455000Y-108979500D01*
G36*
X62298500Y-103508067D02*
X62298500Y-104263933D01*
X62515259Y-104787236D01*
X62397258Y-104905237D01*
X62108000Y-105603567D01*
X62108000Y-106359433D01*
X62228404Y-106650114D01*
X62015000Y-106650114D01*
X61557500Y-106741117D01*
X61557500Y-103272000D01*
X62033879Y-103272000D01*
X62471339Y-103090798D01*
X62298500Y-103508067D01*
X62298500Y-103508067D01*
G37*
X62298500Y-103508067D02*
X62298500Y-104263933D01*
X62515259Y-104787236D01*
X62397258Y-104905237D01*
X62108000Y-105603567D01*
X62108000Y-106359433D01*
X62228404Y-106650114D01*
X62015000Y-106650114D01*
X61557500Y-106741117D01*
X61557500Y-103272000D01*
X62033879Y-103272000D01*
X62471339Y-103090798D01*
X62298500Y-103508067D01*
G36*
X70458736Y-90843264D02*
X71204643Y-91341663D01*
X71781990Y-91456505D01*
X71604758Y-91633737D01*
X71315500Y-92332067D01*
X71315500Y-93087933D01*
X71540501Y-93631133D01*
X71540500Y-97498028D01*
X71507685Y-97663000D01*
X71540500Y-97827971D01*
X71637685Y-98316552D01*
X72007892Y-98870608D01*
X72040033Y-98892084D01*
X72239758Y-99374263D01*
X72774237Y-99908742D01*
X73472567Y-100198000D01*
X74228433Y-100198000D01*
X74323000Y-100158829D01*
X74323000Y-101437500D01*
X71654373Y-101437500D01*
X68796312Y-98579439D01*
X68698679Y-98433321D01*
X68119816Y-98046537D01*
X67609357Y-97945000D01*
X67609353Y-97945000D01*
X67533396Y-97929891D01*
X67497263Y-97893758D01*
X66798933Y-97604500D01*
X66043067Y-97604500D01*
X65344737Y-97893758D01*
X65123000Y-98115495D01*
X65123000Y-95095000D01*
X67772647Y-95095000D01*
X67945000Y-95129283D01*
X68117353Y-95095000D01*
X68117357Y-95095000D01*
X68627816Y-94993463D01*
X69206679Y-94606679D01*
X69304312Y-94460560D01*
X69695559Y-94069313D01*
X69841679Y-93971679D01*
X70228463Y-93392816D01*
X70330000Y-92882357D01*
X70330000Y-92882353D01*
X70364283Y-92710000D01*
X70330000Y-92537647D01*
X70330000Y-90650597D01*
X70458736Y-90843264D01*
X70458736Y-90843264D01*
G37*
X70458736Y-90843264D02*
X71204643Y-91341663D01*
X71781990Y-91456505D01*
X71604758Y-91633737D01*
X71315500Y-92332067D01*
X71315500Y-93087933D01*
X71540501Y-93631133D01*
X71540500Y-97498028D01*
X71507685Y-97663000D01*
X71540500Y-97827971D01*
X71637685Y-98316552D01*
X72007892Y-98870608D01*
X72040033Y-98892084D01*
X72239758Y-99374263D01*
X72774237Y-99908742D01*
X73472567Y-100198000D01*
X74228433Y-100198000D01*
X74323000Y-100158829D01*
X74323000Y-101437500D01*
X71654373Y-101437500D01*
X68796312Y-98579439D01*
X68698679Y-98433321D01*
X68119816Y-98046537D01*
X67609357Y-97945000D01*
X67609353Y-97945000D01*
X67533396Y-97929891D01*
X67497263Y-97893758D01*
X66798933Y-97604500D01*
X66043067Y-97604500D01*
X65344737Y-97893758D01*
X65123000Y-98115495D01*
X65123000Y-95095000D01*
X67772647Y-95095000D01*
X67945000Y-95129283D01*
X68117353Y-95095000D01*
X68117357Y-95095000D01*
X68627816Y-94993463D01*
X69206679Y-94606679D01*
X69304312Y-94460560D01*
X69695559Y-94069313D01*
X69841679Y-93971679D01*
X70228463Y-93392816D01*
X70330000Y-92882357D01*
X70330000Y-92882353D01*
X70364283Y-92710000D01*
X70330000Y-92537647D01*
X70330000Y-90650597D01*
X70458736Y-90843264D01*
G36*
X86929175Y-73553930D02*
X86266089Y-74242512D01*
X85916987Y-75132431D01*
X86279008Y-75515000D01*
X88278500Y-75515000D01*
X88278500Y-75495000D01*
X88378500Y-75495000D01*
X88378500Y-75515000D01*
X90377992Y-75515000D01*
X90740013Y-75132431D01*
X90551548Y-74652000D01*
X91257000Y-74652000D01*
X91257000Y-75520260D01*
X91500585Y-76108327D01*
X91950673Y-76558414D01*
X92538740Y-76802000D01*
X93132000Y-76802000D01*
X93532000Y-76402000D01*
X93532000Y-74252000D01*
X91657000Y-74252000D01*
X91257000Y-74652000D01*
X90551548Y-74652000D01*
X90390911Y-74242512D01*
X89727825Y-73553930D01*
X89681249Y-73533600D01*
X91257000Y-73533600D01*
X91257000Y-73752000D01*
X91657000Y-74152000D01*
X93532000Y-74152000D01*
X93532000Y-74132000D01*
X93632000Y-74132000D01*
X93632000Y-74152000D01*
X93652000Y-74152000D01*
X93652000Y-74252000D01*
X93632000Y-74252000D01*
X93632000Y-76402000D01*
X94027614Y-76797614D01*
X94027614Y-77552000D01*
X94144032Y-78137271D01*
X94475561Y-78633439D01*
X94971729Y-78964968D01*
X94975600Y-78965738D01*
X94975600Y-79117933D01*
X95264858Y-79816263D01*
X95799337Y-80350742D01*
X96497667Y-80640000D01*
X97253533Y-80640000D01*
X97951863Y-80350742D01*
X98053591Y-80249014D01*
X98189253Y-80339660D01*
X98266940Y-80417347D01*
X98360392Y-80557208D01*
X98806441Y-80855248D01*
X99721801Y-81770608D01*
X99721800Y-88719827D01*
X99446000Y-89385667D01*
X99446000Y-89604077D01*
X99357087Y-89663487D01*
X99112837Y-89826689D01*
X99112836Y-89826690D01*
X98966721Y-89924321D01*
X98869090Y-90070436D01*
X97690436Y-91249090D01*
X97544322Y-91346721D01*
X97446691Y-91492836D01*
X97446689Y-91492838D01*
X97157537Y-91925585D01*
X97021717Y-92608400D01*
X97056001Y-92780757D01*
X97056000Y-96861984D01*
X84181853Y-96931763D01*
X84014197Y-96898414D01*
X83837149Y-96933631D01*
X83832358Y-96933657D01*
X83832356Y-96933657D01*
X80147710Y-96953628D01*
X80060200Y-96939288D01*
X80060200Y-93877800D01*
X82593160Y-93877800D01*
X82753200Y-93909634D01*
X82913240Y-93877800D01*
X82913245Y-93877800D01*
X83387243Y-93783516D01*
X83924759Y-93424359D01*
X84015419Y-93288677D01*
X84246278Y-93057818D01*
X84381959Y-92967159D01*
X84741116Y-92429643D01*
X84835400Y-91955645D01*
X84835400Y-91955641D01*
X84867234Y-91795601D01*
X84835400Y-91635560D01*
X84835400Y-89687841D01*
X85110400Y-89023933D01*
X85110400Y-88268067D01*
X84821142Y-87569737D01*
X84286663Y-87035258D01*
X83588333Y-86746000D01*
X82832467Y-86746000D01*
X82134137Y-87035258D01*
X81599658Y-87569737D01*
X81310400Y-88268067D01*
X81310400Y-88593593D01*
X80422060Y-87705253D01*
X80328608Y-87565392D01*
X79774553Y-87195185D01*
X79285972Y-87098000D01*
X79285971Y-87098000D01*
X79121000Y-87065185D01*
X78956029Y-87098000D01*
X78593505Y-87098000D01*
X78636242Y-87055263D01*
X78925500Y-86356933D01*
X78925500Y-85601067D01*
X78809769Y-85321667D01*
X84409200Y-85321667D01*
X84409200Y-86077533D01*
X84698458Y-86775863D01*
X85232937Y-87310342D01*
X85931267Y-87599600D01*
X86687133Y-87599600D01*
X87385463Y-87310342D01*
X87919942Y-86775863D01*
X88209200Y-86077533D01*
X88209200Y-85321667D01*
X87919942Y-84623337D01*
X87831800Y-84535195D01*
X87831800Y-82952000D01*
X91257000Y-82952000D01*
X91257000Y-83820260D01*
X91500585Y-84408327D01*
X91950673Y-84858414D01*
X92538740Y-85102000D01*
X93132000Y-85102000D01*
X93532000Y-84702000D01*
X93532000Y-82552000D01*
X93632000Y-82552000D01*
X93632000Y-84702000D01*
X94032000Y-85102000D01*
X94625260Y-85102000D01*
X95213327Y-84858414D01*
X95663415Y-84408327D01*
X95907000Y-83820260D01*
X95907000Y-82952000D01*
X95507000Y-82552000D01*
X93632000Y-82552000D01*
X93532000Y-82552000D01*
X91657000Y-82552000D01*
X91257000Y-82952000D01*
X87831800Y-82952000D01*
X87831800Y-81183740D01*
X91257000Y-81183740D01*
X91257000Y-82052000D01*
X91657000Y-82452000D01*
X93532000Y-82452000D01*
X93532000Y-80302000D01*
X93632000Y-80302000D01*
X93632000Y-82452000D01*
X95507000Y-82452000D01*
X95907000Y-82052000D01*
X95907000Y-81183740D01*
X95663415Y-80595673D01*
X95213327Y-80145586D01*
X94625260Y-79902000D01*
X94032000Y-79902000D01*
X93632000Y-80302000D01*
X93532000Y-80302000D01*
X93132000Y-79902000D01*
X92538740Y-79902000D01*
X91950673Y-80145586D01*
X91500585Y-80595673D01*
X91257000Y-81183740D01*
X87831800Y-81183740D01*
X87831800Y-80970507D01*
X88317921Y-80484386D01*
X89178500Y-80484386D01*
X89763771Y-80367968D01*
X90259939Y-80036439D01*
X90591468Y-79540271D01*
X90707886Y-78955000D01*
X90707886Y-77255000D01*
X90591468Y-76669729D01*
X90518925Y-76561160D01*
X90740013Y-75997569D01*
X90377992Y-75615000D01*
X88378500Y-75615000D01*
X88378500Y-75635000D01*
X88278500Y-75635000D01*
X88278500Y-75615000D01*
X86279008Y-75615000D01*
X85916987Y-75997569D01*
X86138075Y-76561160D01*
X86065532Y-76669729D01*
X85949114Y-77255000D01*
X85949114Y-78115579D01*
X85089051Y-78975642D01*
X84949193Y-79069092D01*
X84645012Y-79524333D01*
X84578985Y-79623149D01*
X84448985Y-80276700D01*
X84481801Y-80441676D01*
X84481800Y-85146395D01*
X84409200Y-85321667D01*
X78809769Y-85321667D01*
X78636242Y-84902737D01*
X78394500Y-84660995D01*
X78394500Y-75670065D01*
X78544500Y-75307933D01*
X78544500Y-74552067D01*
X78255242Y-73853737D01*
X77935105Y-73533600D01*
X86975751Y-73533600D01*
X86929175Y-73553930D01*
X86929175Y-73553930D01*
G37*
X86929175Y-73553930D02*
X86266089Y-74242512D01*
X85916987Y-75132431D01*
X86279008Y-75515000D01*
X88278500Y-75515000D01*
X88278500Y-75495000D01*
X88378500Y-75495000D01*
X88378500Y-75515000D01*
X90377992Y-75515000D01*
X90740013Y-75132431D01*
X90551548Y-74652000D01*
X91257000Y-74652000D01*
X91257000Y-75520260D01*
X91500585Y-76108327D01*
X91950673Y-76558414D01*
X92538740Y-76802000D01*
X93132000Y-76802000D01*
X93532000Y-76402000D01*
X93532000Y-74252000D01*
X91657000Y-74252000D01*
X91257000Y-74652000D01*
X90551548Y-74652000D01*
X90390911Y-74242512D01*
X89727825Y-73553930D01*
X89681249Y-73533600D01*
X91257000Y-73533600D01*
X91257000Y-73752000D01*
X91657000Y-74152000D01*
X93532000Y-74152000D01*
X93532000Y-74132000D01*
X93632000Y-74132000D01*
X93632000Y-74152000D01*
X93652000Y-74152000D01*
X93652000Y-74252000D01*
X93632000Y-74252000D01*
X93632000Y-76402000D01*
X94027614Y-76797614D01*
X94027614Y-77552000D01*
X94144032Y-78137271D01*
X94475561Y-78633439D01*
X94971729Y-78964968D01*
X94975600Y-78965738D01*
X94975600Y-79117933D01*
X95264858Y-79816263D01*
X95799337Y-80350742D01*
X96497667Y-80640000D01*
X97253533Y-80640000D01*
X97951863Y-80350742D01*
X98053591Y-80249014D01*
X98189253Y-80339660D01*
X98266940Y-80417347D01*
X98360392Y-80557208D01*
X98806441Y-80855248D01*
X99721801Y-81770608D01*
X99721800Y-88719827D01*
X99446000Y-89385667D01*
X99446000Y-89604077D01*
X99357087Y-89663487D01*
X99112837Y-89826689D01*
X99112836Y-89826690D01*
X98966721Y-89924321D01*
X98869090Y-90070436D01*
X97690436Y-91249090D01*
X97544322Y-91346721D01*
X97446691Y-91492836D01*
X97446689Y-91492838D01*
X97157537Y-91925585D01*
X97021717Y-92608400D01*
X97056001Y-92780757D01*
X97056000Y-96861984D01*
X84181853Y-96931763D01*
X84014197Y-96898414D01*
X83837149Y-96933631D01*
X83832358Y-96933657D01*
X83832356Y-96933657D01*
X80147710Y-96953628D01*
X80060200Y-96939288D01*
X80060200Y-93877800D01*
X82593160Y-93877800D01*
X82753200Y-93909634D01*
X82913240Y-93877800D01*
X82913245Y-93877800D01*
X83387243Y-93783516D01*
X83924759Y-93424359D01*
X84015419Y-93288677D01*
X84246278Y-93057818D01*
X84381959Y-92967159D01*
X84741116Y-92429643D01*
X84835400Y-91955645D01*
X84835400Y-91955641D01*
X84867234Y-91795601D01*
X84835400Y-91635560D01*
X84835400Y-89687841D01*
X85110400Y-89023933D01*
X85110400Y-88268067D01*
X84821142Y-87569737D01*
X84286663Y-87035258D01*
X83588333Y-86746000D01*
X82832467Y-86746000D01*
X82134137Y-87035258D01*
X81599658Y-87569737D01*
X81310400Y-88268067D01*
X81310400Y-88593593D01*
X80422060Y-87705253D01*
X80328608Y-87565392D01*
X79774553Y-87195185D01*
X79285972Y-87098000D01*
X79285971Y-87098000D01*
X79121000Y-87065185D01*
X78956029Y-87098000D01*
X78593505Y-87098000D01*
X78636242Y-87055263D01*
X78925500Y-86356933D01*
X78925500Y-85601067D01*
X78809769Y-85321667D01*
X84409200Y-85321667D01*
X84409200Y-86077533D01*
X84698458Y-86775863D01*
X85232937Y-87310342D01*
X85931267Y-87599600D01*
X86687133Y-87599600D01*
X87385463Y-87310342D01*
X87919942Y-86775863D01*
X88209200Y-86077533D01*
X88209200Y-85321667D01*
X87919942Y-84623337D01*
X87831800Y-84535195D01*
X87831800Y-82952000D01*
X91257000Y-82952000D01*
X91257000Y-83820260D01*
X91500585Y-84408327D01*
X91950673Y-84858414D01*
X92538740Y-85102000D01*
X93132000Y-85102000D01*
X93532000Y-84702000D01*
X93532000Y-82552000D01*
X93632000Y-82552000D01*
X93632000Y-84702000D01*
X94032000Y-85102000D01*
X94625260Y-85102000D01*
X95213327Y-84858414D01*
X95663415Y-84408327D01*
X95907000Y-83820260D01*
X95907000Y-82952000D01*
X95507000Y-82552000D01*
X93632000Y-82552000D01*
X93532000Y-82552000D01*
X91657000Y-82552000D01*
X91257000Y-82952000D01*
X87831800Y-82952000D01*
X87831800Y-81183740D01*
X91257000Y-81183740D01*
X91257000Y-82052000D01*
X91657000Y-82452000D01*
X93532000Y-82452000D01*
X93532000Y-80302000D01*
X93632000Y-80302000D01*
X93632000Y-82452000D01*
X95507000Y-82452000D01*
X95907000Y-82052000D01*
X95907000Y-81183740D01*
X95663415Y-80595673D01*
X95213327Y-80145586D01*
X94625260Y-79902000D01*
X94032000Y-79902000D01*
X93632000Y-80302000D01*
X93532000Y-80302000D01*
X93132000Y-79902000D01*
X92538740Y-79902000D01*
X91950673Y-80145586D01*
X91500585Y-80595673D01*
X91257000Y-81183740D01*
X87831800Y-81183740D01*
X87831800Y-80970507D01*
X88317921Y-80484386D01*
X89178500Y-80484386D01*
X89763771Y-80367968D01*
X90259939Y-80036439D01*
X90591468Y-79540271D01*
X90707886Y-78955000D01*
X90707886Y-77255000D01*
X90591468Y-76669729D01*
X90518925Y-76561160D01*
X90740013Y-75997569D01*
X90377992Y-75615000D01*
X88378500Y-75615000D01*
X88378500Y-75635000D01*
X88278500Y-75635000D01*
X88278500Y-75615000D01*
X86279008Y-75615000D01*
X85916987Y-75997569D01*
X86138075Y-76561160D01*
X86065532Y-76669729D01*
X85949114Y-77255000D01*
X85949114Y-78115579D01*
X85089051Y-78975642D01*
X84949193Y-79069092D01*
X84645012Y-79524333D01*
X84578985Y-79623149D01*
X84448985Y-80276700D01*
X84481801Y-80441676D01*
X84481800Y-85146395D01*
X84409200Y-85321667D01*
X78809769Y-85321667D01*
X78636242Y-84902737D01*
X78394500Y-84660995D01*
X78394500Y-75670065D01*
X78544500Y-75307933D01*
X78544500Y-74552067D01*
X78255242Y-73853737D01*
X77935105Y-73533600D01*
X86975751Y-73533600D01*
X86929175Y-73553930D01*
G04 #@! TD*
M02*
