G04 #@! TF.GenerationSoftware,KiCad,Pcbnew,5.0.0-1.fc29*
G04 #@! TF.CreationDate,2018-08-25T23:53:58+05:30*
G04 #@! TF.ProjectId,medlo,6D65646C6F2E6B696361645F70636200,rev?*
G04 #@! TF.SameCoordinates,Original*
G04 #@! TF.FileFunction,Copper,L1,Top,Signal*
G04 #@! TF.FilePolarity,Positive*
%FSLAX46Y46*%
G04 Gerber Fmt 4.6, Leading zero omitted, Abs format (unit mm)*
G04 Created by KiCad (PCBNEW 5.0.0-1.fc29) date Sat Aug 25 23:53:58 2018*
%MOMM*%
%LPD*%
G01*
G04 APERTURE LIST*
G04 #@! TA.AperFunction,ComponentPad*
%ADD10O,3.010000X1.510000*%
G04 #@! TD*
G04 #@! TA.AperFunction,SMDPad,CuDef*
%ADD11R,1.800000X2.600000*%
G04 #@! TD*
G04 #@! TA.AperFunction,SMDPad,CuDef*
%ADD12R,1.250000X1.500000*%
G04 #@! TD*
G04 #@! TA.AperFunction,SMDPad,CuDef*
%ADD13R,1.500000X1.250000*%
G04 #@! TD*
G04 #@! TA.AperFunction,SMDPad,CuDef*
%ADD14R,1.300000X1.500000*%
G04 #@! TD*
G04 #@! TA.AperFunction,SMDPad,CuDef*
%ADD15R,1.500000X1.300000*%
G04 #@! TD*
G04 #@! TA.AperFunction,SMDPad,CuDef*
%ADD16R,5.600000X2.300000*%
G04 #@! TD*
G04 #@! TA.AperFunction,SMDPad,CuDef*
%ADD17R,1.350000X0.400000*%
G04 #@! TD*
G04 #@! TA.AperFunction,ComponentPad*
%ADD18O,0.950000X1.250000*%
G04 #@! TD*
G04 #@! TA.AperFunction,ComponentPad*
%ADD19O,1.550000X1.000000*%
G04 #@! TD*
G04 #@! TA.AperFunction,ComponentPad*
%ADD20R,1.700000X1.700000*%
G04 #@! TD*
G04 #@! TA.AperFunction,ComponentPad*
%ADD21O,1.700000X1.700000*%
G04 #@! TD*
G04 #@! TA.AperFunction,SMDPad,CuDef*
%ADD22R,0.650000X0.400000*%
G04 #@! TD*
G04 #@! TA.AperFunction,SMDPad,CuDef*
%ADD23R,1.500000X0.700000*%
G04 #@! TD*
G04 #@! TA.AperFunction,SMDPad,CuDef*
%ADD24R,0.800000X1.000000*%
G04 #@! TD*
G04 #@! TA.AperFunction,SMDPad,CuDef*
%ADD25R,1.450000X0.700000*%
G04 #@! TD*
G04 #@! TA.AperFunction,SMDPad,CuDef*
%ADD26R,0.650000X1.560000*%
G04 #@! TD*
G04 #@! TA.AperFunction,SMDPad,CuDef*
%ADD27R,1.560000X0.650000*%
G04 #@! TD*
G04 #@! TA.AperFunction,SMDPad,CuDef*
%ADD28O,2.500000X0.900000*%
G04 #@! TD*
G04 #@! TA.AperFunction,SMDPad,CuDef*
%ADD29O,0.900000X2.500000*%
G04 #@! TD*
G04 #@! TA.AperFunction,SMDPad,CuDef*
%ADD30R,6.000000X6.000000*%
G04 #@! TD*
G04 #@! TA.AperFunction,ViaPad*
%ADD31C,0.800000*%
G04 #@! TD*
G04 #@! TA.AperFunction,ViaPad*
%ADD32C,0.600000*%
G04 #@! TD*
G04 #@! TA.AperFunction,Conductor*
%ADD33C,0.500000*%
G04 #@! TD*
G04 #@! TA.AperFunction,Conductor*
%ADD34C,0.350000*%
G04 #@! TD*
G04 #@! TA.AperFunction,Conductor*
%ADD35C,0.250000*%
G04 #@! TD*
G04 #@! TA.AperFunction,Conductor*
%ADD36C,1.000000*%
G04 #@! TD*
G04 APERTURE END LIST*
D10*
G04 #@! TO.P,BT1,1*
G04 #@! TO.N,Net-(BT1-Pad1)*
X72834500Y-86677500D03*
G04 #@! TO.P,BT1,2*
G04 #@! TO.N,Net-(BT1-Pad2)*
X72834500Y-89217500D03*
G04 #@! TD*
D11*
G04 #@! TO.P,C1,1*
G04 #@! TO.N,Net-(C1-Pad1)*
X79311500Y-74944500D03*
G04 #@! TO.P,C1,2*
G04 #@! TO.N,Net-(BT1-Pad2)*
X79311500Y-78344500D03*
G04 #@! TD*
D12*
G04 #@! TO.P,C2,2*
G04 #@! TO.N,Net-(BT1-Pad2)*
X66611500Y-101239000D03*
G04 #@! TO.P,C2,1*
G04 #@! TO.N,Net-(C2-Pad1)*
X66611500Y-103739000D03*
G04 #@! TD*
G04 #@! TO.P,C3,1*
G04 #@! TO.N,GND*
X66738500Y-97643000D03*
G04 #@! TO.P,C3,2*
G04 #@! TO.N,Net-(C3-Pad2)*
X66738500Y-95143000D03*
G04 #@! TD*
G04 #@! TO.P,C4,1*
G04 #@! TO.N,EN*
X68834000Y-120376000D03*
G04 #@! TO.P,C4,2*
G04 #@! TO.N,GND*
X68834000Y-117876000D03*
G04 #@! TD*
G04 #@! TO.P,C5,2*
G04 #@! TO.N,VCC*
X108712000Y-103753600D03*
G04 #@! TO.P,C5,1*
G04 #@! TO.N,GND*
X108712000Y-106253600D03*
G04 #@! TD*
D13*
G04 #@! TO.P,C6,2*
G04 #@! TO.N,VCC*
X98379600Y-74777600D03*
G04 #@! TO.P,C6,1*
G04 #@! TO.N,GND*
X95879600Y-74777600D03*
G04 #@! TD*
D12*
G04 #@! TO.P,C7,1*
G04 #@! TO.N,BTN1*
X86766400Y-117622000D03*
G04 #@! TO.P,C7,2*
G04 #@! TO.N,GND*
X86766400Y-120122000D03*
G04 #@! TD*
G04 #@! TO.P,C8,2*
G04 #@! TO.N,VCC*
X111048800Y-103753600D03*
G04 #@! TO.P,C8,1*
G04 #@! TO.N,GND*
X111048800Y-106253600D03*
G04 #@! TD*
D13*
G04 #@! TO.P,C9,1*
G04 #@! TO.N,GND*
X95828800Y-76657200D03*
G04 #@! TO.P,C9,2*
G04 #@! TO.N,VCC*
X98328800Y-76657200D03*
G04 #@! TD*
D14*
G04 #@! TO.P,D1,2*
G04 #@! TO.N,Net-(C1-Pad1)*
X83629500Y-74469000D03*
G04 #@! TO.P,D1,1*
G04 #@! TO.N,Net-(D1-Pad1)*
X83629500Y-77169000D03*
G04 #@! TD*
D15*
G04 #@! TO.P,D2,1*
G04 #@! TO.N,GND*
X89899500Y-118173500D03*
G04 #@! TO.P,D2,2*
G04 #@! TO.N,Net-(D2-Pad2)*
X92599500Y-118173500D03*
G04 #@! TD*
G04 #@! TO.P,D3,1*
G04 #@! TO.N,GND*
X89963000Y-120269000D03*
G04 #@! TO.P,D3,2*
G04 #@! TO.N,Net-(D3-Pad2)*
X92663000Y-120269000D03*
G04 #@! TD*
D16*
G04 #@! TO.P,F1,1*
G04 #@! TO.N,Net-(F1-Pad1)*
X72644000Y-82313000D03*
G04 #@! TO.P,F1,2*
G04 #@! TO.N,Net-(C1-Pad1)*
X72644000Y-74913000D03*
G04 #@! TD*
D17*
G04 #@! TO.P,J1,1*
G04 #@! TO.N,Net-(F1-Pad1)*
X65866000Y-86584000D03*
G04 #@! TO.P,J1,2*
G04 #@! TO.N,N/C*
X65866000Y-87234000D03*
G04 #@! TO.P,J1,3*
X65866000Y-87884000D03*
G04 #@! TO.P,J1,4*
X65866000Y-88534000D03*
G04 #@! TO.P,J1,5*
G04 #@! TO.N,Net-(BT1-Pad2)*
X65866000Y-89184000D03*
D18*
G04 #@! TO.P,J1,6*
G04 #@! TO.N,Net-(J1-Pad6)*
X65866000Y-85384000D03*
X65866000Y-90384000D03*
D19*
X63166000Y-84384000D03*
X63166000Y-91384000D03*
G04 #@! TD*
D20*
G04 #@! TO.P,J2,1*
G04 #@! TO.N,VCC*
X62865000Y-109029500D03*
D21*
G04 #@! TO.P,J2,2*
G04 #@! TO.N,GND*
X65405000Y-109029500D03*
G04 #@! TO.P,J2,3*
G04 #@! TO.N,N/C*
X67945000Y-109029500D03*
G04 #@! TO.P,J2,4*
G04 #@! TO.N,TXD0*
X70485000Y-109029500D03*
G04 #@! TO.P,J2,5*
G04 #@! TO.N,RXD0*
X73025000Y-109029500D03*
G04 #@! TO.P,J2,6*
G04 #@! TO.N,DTR*
X75565000Y-109029500D03*
G04 #@! TO.P,J2,7*
G04 #@! TO.N,RST*
X78105000Y-109029500D03*
G04 #@! TD*
D20*
G04 #@! TO.P,J3,1*
G04 #@! TO.N,SD_MISO*
X88328500Y-78105000D03*
D21*
G04 #@! TO.P,J3,2*
G04 #@! TO.N,GND*
X88328500Y-75565000D03*
G04 #@! TD*
G04 #@! TO.P,J5,4*
G04 #@! TO.N,SDA0*
X112776000Y-97155000D03*
G04 #@! TO.P,J5,3*
G04 #@! TO.N,SCL0*
X112776000Y-94615000D03*
G04 #@! TO.P,J5,2*
G04 #@! TO.N,GND*
X112776000Y-92075000D03*
D20*
G04 #@! TO.P,J5,1*
G04 #@! TO.N,VCC*
X112776000Y-89535000D03*
G04 #@! TD*
G04 #@! TO.P,J6,1*
G04 #@! TO.N,VCC*
X100457000Y-118618000D03*
D21*
G04 #@! TO.P,J6,2*
G04 #@! TO.N,GND*
X102997000Y-118618000D03*
G04 #@! TO.P,J6,3*
G04 #@! TO.N,SCL0*
X105537000Y-118618000D03*
G04 #@! TO.P,J6,4*
G04 #@! TO.N,SDA0*
X108077000Y-118618000D03*
G04 #@! TD*
D22*
G04 #@! TO.P,Q1,1*
G04 #@! TO.N,RST*
X73022500Y-120347500D03*
G04 #@! TO.P,Q1,3*
G04 #@! TO.N,GPIO0*
X73022500Y-119047500D03*
G04 #@! TO.P,Q1,5*
G04 #@! TO.N,Net-(Q1-Pad5)*
X71122500Y-119697500D03*
G04 #@! TO.P,Q1,2*
G04 #@! TO.N,Net-(Q1-Pad2)*
X73022500Y-119697500D03*
G04 #@! TO.P,Q1,4*
G04 #@! TO.N,DTR*
X71122500Y-119047500D03*
G04 #@! TO.P,Q1,6*
G04 #@! TO.N,EN*
X71122500Y-120347500D03*
G04 #@! TD*
D15*
G04 #@! TO.P,R1,2*
G04 #@! TO.N,Net-(BT1-Pad2)*
X78025000Y-92011500D03*
G04 #@! TO.P,R1,1*
G04 #@! TO.N,Net-(R1-Pad1)*
X80725000Y-92011500D03*
G04 #@! TD*
D14*
G04 #@! TO.P,R2,2*
G04 #@! TO.N,Net-(D1-Pad1)*
X83629500Y-79930000D03*
G04 #@! TO.P,R2,1*
G04 #@! TO.N,Net-(R2-Pad1)*
X83629500Y-82630000D03*
G04 #@! TD*
D15*
G04 #@! TO.P,R3,1*
G04 #@! TO.N,Net-(R3-Pad1)*
X80915500Y-82740500D03*
G04 #@! TO.P,R3,2*
G04 #@! TO.N,Net-(BT1-Pad2)*
X78215500Y-82740500D03*
G04 #@! TD*
D14*
G04 #@! TO.P,R4,2*
G04 #@! TO.N,Net-(C2-Pad1)*
X69342000Y-103839000D03*
G04 #@! TO.P,R4,1*
G04 #@! TO.N,Net-(C3-Pad2)*
X69342000Y-101139000D03*
G04 #@! TD*
G04 #@! TO.P,R5,2*
G04 #@! TO.N,Net-(BT1-Pad2)*
X76073000Y-94471500D03*
G04 #@! TO.P,R5,1*
G04 #@! TO.N,Net-(R5-Pad1)*
X76073000Y-97171500D03*
G04 #@! TD*
G04 #@! TO.P,R6,1*
G04 #@! TO.N,Net-(Q1-Pad2)*
X68897500Y-114951500D03*
G04 #@! TO.P,R6,2*
G04 #@! TO.N,DTR*
X68897500Y-112251500D03*
G04 #@! TD*
G04 #@! TO.P,R7,2*
G04 #@! TO.N,RST*
X72644000Y-112061000D03*
G04 #@! TO.P,R7,1*
G04 #@! TO.N,Net-(Q1-Pad5)*
X72644000Y-114761000D03*
G04 #@! TD*
D15*
G04 #@! TO.P,R8,1*
G04 #@! TO.N,VCC*
X62785000Y-112903000D03*
G04 #@! TO.P,R8,2*
G04 #@! TO.N,EN*
X65485000Y-112903000D03*
G04 #@! TD*
D14*
G04 #@! TO.P,R9,1*
G04 #@! TO.N,Net-(R9-Pad1)*
X94932500Y-114791500D03*
G04 #@! TO.P,R9,2*
G04 #@! TO.N,Net-(D2-Pad2)*
X94932500Y-117491500D03*
G04 #@! TD*
G04 #@! TO.P,R10,1*
G04 #@! TO.N,Net-(R10-Pad1)*
X97091500Y-114791500D03*
G04 #@! TO.P,R10,2*
G04 #@! TO.N,Net-(D3-Pad2)*
X97091500Y-117491500D03*
G04 #@! TD*
D23*
G04 #@! TO.P,SW1,1*
G04 #@! TO.N,N/C*
X63406000Y-97572000D03*
G04 #@! TO.P,SW1,2*
G04 #@! TO.N,Net-(BT1-Pad1)*
X63406000Y-100572000D03*
G04 #@! TO.P,SW1,3*
G04 #@! TO.N,Net-(C2-Pad1)*
X63406000Y-102072000D03*
D24*
G04 #@! TO.P,SW1,*
G04 #@! TO.N,*
X60546000Y-96172000D03*
X60546000Y-103472000D03*
X62756000Y-103472000D03*
X62756000Y-96172000D03*
G04 #@! TD*
D25*
G04 #@! TO.P,SW2,1*
G04 #@! TO.N,GND*
X81777200Y-112995200D03*
X76617200Y-112995200D03*
G04 #@! TO.P,SW2,2*
G04 #@! TO.N,EN*
X76617200Y-114995200D03*
X81777200Y-114995200D03*
G04 #@! TD*
G04 #@! TO.P,SW3,2*
G04 #@! TO.N,BTN1*
X76515600Y-118024400D03*
X81675600Y-118024400D03*
G04 #@! TO.P,SW3,1*
G04 #@! TO.N,GND*
X81675600Y-120024400D03*
X76515600Y-120024400D03*
G04 #@! TD*
D26*
G04 #@! TO.P,T1,5*
G04 #@! TO.N,N/C*
X73596500Y-100377000D03*
G04 #@! TO.P,T1,6*
G04 #@! TO.N,Net-(T1-Pad6)*
X72646500Y-100377000D03*
G04 #@! TO.P,T1,4*
G04 #@! TO.N,Net-(T1-Pad4)*
X74546500Y-100377000D03*
G04 #@! TO.P,T1,3*
G04 #@! TO.N,Net-(BT1-Pad2)*
X74546500Y-103077000D03*
G04 #@! TO.P,T1,2*
G04 #@! TO.N,N/C*
X73596500Y-103077000D03*
G04 #@! TO.P,T1,1*
G04 #@! TO.N,GND*
X72646500Y-103077000D03*
G04 #@! TD*
G04 #@! TO.P,U1,1*
G04 #@! TO.N,Net-(R1-Pad1)*
X78615500Y-88726000D03*
G04 #@! TO.P,U1,2*
G04 #@! TO.N,Net-(BT1-Pad1)*
X79565500Y-88726000D03*
G04 #@! TO.P,U1,3*
G04 #@! TO.N,Net-(R2-Pad1)*
X80515500Y-88726000D03*
G04 #@! TO.P,U1,4*
G04 #@! TO.N,Net-(R3-Pad1)*
X80515500Y-86026000D03*
G04 #@! TO.P,U1,6*
G04 #@! TO.N,Net-(C1-Pad1)*
X78615500Y-86026000D03*
G04 #@! TO.P,U1,5*
G04 #@! TO.N,Net-(BT1-Pad2)*
X79565500Y-86026000D03*
G04 #@! TD*
D27*
G04 #@! TO.P,U2,1*
G04 #@! TO.N,Net-(T1-Pad6)*
X72978000Y-96073000D03*
G04 #@! TO.P,U2,2*
G04 #@! TO.N,Net-(R5-Pad1)*
X72978000Y-95123000D03*
G04 #@! TO.P,U2,3*
G04 #@! TO.N,Net-(T1-Pad4)*
X72978000Y-94173000D03*
G04 #@! TO.P,U2,4*
G04 #@! TO.N,N/C*
X70278000Y-94173000D03*
G04 #@! TO.P,U2,6*
G04 #@! TO.N,GND*
X70278000Y-96073000D03*
G04 #@! TO.P,U2,5*
G04 #@! TO.N,Net-(C3-Pad2)*
X70278000Y-95123000D03*
G04 #@! TD*
D28*
G04 #@! TO.P,U3,38*
G04 #@! TO.N,GND*
X85678500Y-104881500D03*
G04 #@! TO.P,U3,37*
G04 #@! TO.N,Net-(R9-Pad1)*
X85678500Y-103611500D03*
G04 #@! TO.P,U3,36*
G04 #@! TO.N,Net-(R10-Pad1)*
X85678500Y-102341500D03*
G04 #@! TO.P,U3,35*
G04 #@! TO.N,RXD0*
X85678500Y-101071500D03*
G04 #@! TO.P,U3,34*
G04 #@! TO.N,TXD0*
X85678500Y-99801500D03*
G04 #@! TO.P,U3,33*
G04 #@! TO.N,N/C*
X85678500Y-98531500D03*
G04 #@! TO.P,U3,32*
X85678500Y-97261500D03*
G04 #@! TO.P,U3,31*
X85678500Y-95991500D03*
G04 #@! TO.P,U3,30*
X85678500Y-94721500D03*
G04 #@! TO.P,U3,29*
X85678500Y-93451500D03*
G04 #@! TO.P,U3,28*
X85678500Y-92181500D03*
G04 #@! TO.P,U3,27*
X85678500Y-90911500D03*
G04 #@! TO.P,U3,26*
X85678500Y-89641500D03*
G04 #@! TO.P,U3,25*
G04 #@! TO.N,GPIO0*
X85678500Y-88371500D03*
D29*
G04 #@! TO.P,U3,24*
G04 #@! TO.N,SD_MISO*
X88963500Y-86881500D03*
G04 #@! TO.P,U3,23*
G04 #@! TO.N,SD_MOSI*
X90233500Y-86881500D03*
G04 #@! TO.P,U3,22*
G04 #@! TO.N,N/C*
X91503500Y-86881500D03*
G04 #@! TO.P,U3,21*
X92773500Y-86881500D03*
G04 #@! TO.P,U3,20*
X94043500Y-86881500D03*
G04 #@! TO.P,U3,19*
X95313500Y-86881500D03*
G04 #@! TO.P,U3,18*
X96583500Y-86881500D03*
G04 #@! TO.P,U3,17*
X97853500Y-86881500D03*
G04 #@! TO.P,U3,16*
G04 #@! TO.N,SD_CS*
X99123500Y-86881500D03*
G04 #@! TO.P,U3,15*
G04 #@! TO.N,GND*
X100393500Y-86881500D03*
D28*
G04 #@! TO.P,U3,14*
G04 #@! TO.N,N/C*
X103678500Y-88371500D03*
G04 #@! TO.P,U3,13*
G04 #@! TO.N,SD_CLK*
X103678500Y-89641500D03*
G04 #@! TO.P,U3,12*
G04 #@! TO.N,N/C*
X103678500Y-90911500D03*
G04 #@! TO.P,U3,11*
G04 #@! TO.N,SCL0*
X103678500Y-92181500D03*
G04 #@! TO.P,U3,10*
G04 #@! TO.N,SDA0*
X103678500Y-93451500D03*
G04 #@! TO.P,U3,9*
G04 #@! TO.N,N/C*
X103678500Y-94721500D03*
G04 #@! TO.P,U3,8*
G04 #@! TO.N,BTN1*
X103678500Y-95991500D03*
G04 #@! TO.P,U3,7*
G04 #@! TO.N,N/C*
X103678500Y-97261500D03*
G04 #@! TO.P,U3,6*
X103678500Y-98531500D03*
G04 #@! TO.P,U3,5*
X103678500Y-99801500D03*
G04 #@! TO.P,U3,4*
X103678500Y-101071500D03*
G04 #@! TO.P,U3,3*
G04 #@! TO.N,EN*
X103678500Y-102341500D03*
G04 #@! TO.P,U3,2*
G04 #@! TO.N,VCC*
X103678500Y-103611500D03*
G04 #@! TO.P,U3,1*
G04 #@! TO.N,GND*
X103678500Y-104881500D03*
D30*
G04 #@! TO.P,U3,39*
X94978500Y-97181500D03*
G04 #@! TD*
D31*
G04 #@! TO.N,Net-(BT1-Pad1)*
X75438000Y-87439500D03*
X63373000Y-98996500D03*
G04 #@! TO.N,Net-(BT1-Pad2)*
X76073000Y-92075000D03*
X76009500Y-103187500D03*
X66421000Y-99504500D03*
G04 #@! TO.N,Net-(C1-Pad1)*
X77025500Y-85979000D03*
X76644500Y-74930000D03*
D32*
G04 #@! TO.N,VCC*
X98806000Y-98552000D03*
X77520800Y-100126800D03*
X79857600Y-99009200D03*
X98679000Y-109474000D03*
X111709200Y-75539600D03*
X100279200Y-78638400D03*
D31*
G04 #@! TO.N,GND*
X70993000Y-99441000D03*
X70104000Y-92075000D03*
D32*
X79298800Y-119938800D03*
X79146400Y-112826800D03*
X82519700Y-104881500D03*
X79197200Y-104851200D03*
X60909200Y-114300000D03*
X91287600Y-92710000D03*
X109169200Y-80873600D03*
X88201500Y-121285000D03*
D31*
G04 #@! TO.N,EN*
X70358000Y-121412000D03*
X67106800Y-114198400D03*
X74980800Y-115062000D03*
G04 #@! TO.N,BTN1*
X101244400Y-96266000D03*
X89509600Y-112826800D03*
G04 #@! TO.N,DTR*
X66954400Y-111607600D03*
X71221600Y-116332000D03*
G04 #@! TO.N,RST*
X72948800Y-116535200D03*
G04 #@! TO.N,SD_MISO*
X86309200Y-85699600D03*
X96875600Y-78740000D03*
G04 #@! TO.N,SD_CLK*
X101346000Y-89763600D03*
G04 #@! TO.N,SD_MOSI*
X101396800Y-78790800D03*
G04 #@! TO.N,SD_CS*
X102616000Y-79146400D03*
X104444800Y-80568800D03*
G04 #@! TO.N,GPIO0*
X83210400Y-88646000D03*
X73152000Y-117754400D03*
G04 #@! TO.N,Net-(R1-Pad1)*
X80899000Y-90551000D03*
X77089000Y-88709500D03*
G04 #@! TO.N,Net-(R9-Pad1)*
X92011500Y-103632000D03*
X92075000Y-109410500D03*
G04 #@! TO.N,Net-(R10-Pad1)*
X93472000Y-109347000D03*
X93472000Y-103632000D03*
G04 #@! TO.N,Net-(T1-Pad4)*
X73215500Y-92710000D03*
X73850500Y-98298000D03*
G04 #@! TO.N,Net-(C2-Pad1)*
X64008000Y-105981500D03*
X64198500Y-103886000D03*
G04 #@! TD*
D33*
G04 #@! TO.N,Net-(BT1-Pad1)*
X79565500Y-88726000D02*
X79565500Y-90424000D01*
X74739500Y-86677500D02*
X72834500Y-86677500D01*
X75946000Y-87884000D02*
X75438000Y-87376000D01*
X75946000Y-90233500D02*
X75946000Y-87884000D01*
X76136500Y-90424000D02*
X75946000Y-90233500D01*
X79565500Y-90424000D02*
X76136500Y-90424000D01*
X63406000Y-100572000D02*
X63406000Y-99029500D01*
X63406000Y-99029500D02*
X63373000Y-98996500D01*
X75438000Y-87439500D02*
X75469750Y-87407750D01*
X75469750Y-87407750D02*
X75438000Y-87439500D01*
X75438000Y-87439500D02*
X75438000Y-87376000D01*
X75438000Y-87376000D02*
X74739500Y-86677500D01*
G04 #@! TO.N,Net-(BT1-Pad2)*
X65866000Y-89184000D02*
X69977000Y-89184000D01*
X69977000Y-89184000D02*
X72801000Y-89184000D01*
X72801000Y-89184000D02*
X72834500Y-89217500D01*
X78215500Y-82740500D02*
X78168500Y-82740500D01*
X69977000Y-89408000D02*
X69977000Y-89184000D01*
X69947000Y-89408000D02*
X69977000Y-89408000D01*
X69723000Y-89184000D02*
X69947000Y-89408000D01*
X69723000Y-85663002D02*
X69723000Y-89184000D01*
X70804002Y-84582000D02*
X69723000Y-85663002D01*
X76327000Y-84582000D02*
X70804002Y-84582000D01*
X78168500Y-82740500D02*
X76327000Y-84582000D01*
X79565500Y-86026000D02*
X79565500Y-84264500D01*
X78215500Y-82914500D02*
X78215500Y-82740500D01*
X79565500Y-84264500D02*
X78215500Y-82914500D01*
X78215500Y-82740500D02*
X78215500Y-79440500D01*
X78215500Y-79440500D02*
X79311500Y-78344500D01*
X78025000Y-92011500D02*
X76073000Y-92011500D01*
X76073000Y-92011500D02*
X74676000Y-92011500D01*
X72834500Y-90170000D02*
X72834500Y-89217500D01*
X74676000Y-92011500D02*
X72834500Y-90170000D01*
X76073000Y-94471500D02*
X76073000Y-92011500D01*
X76073000Y-92011500D02*
X76073000Y-91884500D01*
X76073000Y-91884500D02*
X76073000Y-92011500D01*
X74546500Y-103077000D02*
X75899000Y-103077000D01*
X76073000Y-92075000D02*
X76073000Y-92011500D01*
X75899000Y-103077000D02*
X76009500Y-103187500D01*
X66611500Y-101239000D02*
X66611500Y-99695000D01*
X66611500Y-99695000D02*
X66421000Y-99504500D01*
G04 #@! TO.N,Net-(C1-Pad1)*
X72644000Y-74913000D02*
X76644500Y-74913000D01*
X76644500Y-74913000D02*
X79280000Y-74913000D01*
X79280000Y-74913000D02*
X79311500Y-74944500D01*
X78615500Y-86026000D02*
X77072500Y-86026000D01*
X77072500Y-86026000D02*
X77025500Y-85979000D01*
X76644500Y-74930000D02*
X76644500Y-74913000D01*
X76644500Y-74913000D02*
X76644500Y-74930000D01*
X76644500Y-74930000D02*
X76644500Y-74913000D01*
X79311500Y-74944500D02*
X76659000Y-74944500D01*
X76659000Y-74944500D02*
X76644500Y-74930000D01*
X83629500Y-74469000D02*
X79787000Y-74469000D01*
X79787000Y-74469000D02*
X79311500Y-74944500D01*
G04 #@! TO.N,VCC*
X62785000Y-112903000D02*
X62785000Y-109109500D01*
X62785000Y-109109500D02*
X62865000Y-109029500D01*
X103678500Y-103611500D02*
X101985900Y-103611500D01*
X100533200Y-102158800D02*
X98806000Y-98552000D01*
X101985900Y-103611500D02*
X100533200Y-102158800D01*
X78181200Y-100126800D02*
X77520800Y-100126800D01*
X79857600Y-99009200D02*
X78181200Y-100126800D01*
X111048800Y-103753600D02*
X108712000Y-103753600D01*
X108712000Y-103753600D02*
X108569900Y-103611500D01*
X108569900Y-103611500D02*
X103678500Y-103611500D01*
X100457000Y-118618000D02*
X100457000Y-111252000D01*
X100457000Y-111252000D02*
X98679000Y-109474000D01*
X100888800Y-75539600D02*
X111709200Y-75539600D01*
X100482400Y-75946000D02*
X100888800Y-75539600D01*
X100482400Y-78435200D02*
X100482400Y-76606400D01*
X100482400Y-76606400D02*
X100482400Y-75946000D01*
X100279200Y-78638400D02*
X100482400Y-78435200D01*
X98379600Y-74777600D02*
X98379600Y-76606400D01*
X98379600Y-76606400D02*
X100482400Y-76606400D01*
X100482400Y-76606400D02*
X100533200Y-76606400D01*
X100533200Y-76606400D02*
X100482400Y-76606400D01*
X112776000Y-89535000D02*
X112776000Y-81635600D01*
X112776000Y-81635600D02*
X111709200Y-80568800D01*
X111709200Y-80568800D02*
X111709200Y-75539600D01*
G04 #@! TO.N,GND*
X66738500Y-97643000D02*
X65298000Y-97643000D01*
X70278000Y-98726000D02*
X70278000Y-96073000D01*
X70993000Y-99441000D02*
X70278000Y-98726000D01*
X66484500Y-92075000D02*
X70104000Y-92075000D01*
X65151000Y-93408500D02*
X66484500Y-92075000D01*
X65151000Y-97496000D02*
X65151000Y-93408500D01*
X65298000Y-97643000D02*
X65151000Y-97496000D01*
X72646500Y-103077000D02*
X72025500Y-103077000D01*
X70993000Y-102044500D02*
X70993000Y-99441000D01*
X72025500Y-103077000D02*
X70993000Y-102044500D01*
X65405000Y-109029500D02*
X65405000Y-105854500D01*
X65405000Y-105854500D02*
X65532000Y-105727500D01*
X65532000Y-105727500D02*
X71501000Y-105727500D01*
X72646500Y-104582000D02*
X72646500Y-103077000D01*
X71501000Y-105727500D02*
X72646500Y-104582000D01*
X81675600Y-120024400D02*
X76515600Y-120024400D01*
X76515600Y-120024400D02*
X76601200Y-119938800D01*
X76601200Y-119938800D02*
X79298800Y-119938800D01*
X79146400Y-112826800D02*
X78978000Y-112995200D01*
X78978000Y-112995200D02*
X81777200Y-112995200D01*
X76617200Y-112995200D02*
X78978000Y-112995200D01*
X78978000Y-112995200D02*
X79146400Y-112826800D01*
X79146400Y-112826800D02*
X79349600Y-112826800D01*
X79349600Y-112826800D02*
X80772000Y-111404400D01*
X80772000Y-111404400D02*
X80772000Y-107086400D01*
X80772000Y-107086400D02*
X82143600Y-105714800D01*
X82143600Y-105714800D02*
X82143600Y-105257600D01*
X82143600Y-105257600D02*
X82519700Y-104881500D01*
X82519700Y-104881500D02*
X85678500Y-104881500D01*
X72646500Y-104582000D02*
X72864900Y-104800400D01*
X78028800Y-104800400D02*
X72864900Y-104800400D01*
X79197200Y-104851200D02*
X78028800Y-104800400D01*
X85678500Y-104881500D02*
X87989700Y-105135500D01*
X98259900Y-104822100D02*
X97548700Y-99683100D01*
X87989700Y-105135500D02*
X98259900Y-104822100D01*
X103678500Y-104881500D02*
X100461900Y-104881500D01*
X94978500Y-99398100D02*
X94978500Y-97181500D01*
X100461900Y-104881500D02*
X96291400Y-100711000D01*
X96291400Y-100711000D02*
X94978500Y-99398100D01*
X68834000Y-117876000D02*
X68834000Y-117398800D01*
X65887600Y-114300000D02*
X60909200Y-114300000D01*
X66548000Y-114960400D02*
X65887600Y-114300000D01*
X66649600Y-114960400D02*
X66548000Y-114960400D01*
X67360800Y-115671600D02*
X66649600Y-114960400D01*
X67360800Y-115925600D02*
X67360800Y-115671600D01*
X68834000Y-117398800D02*
X67360800Y-115925600D01*
X111048800Y-106253600D02*
X108712000Y-106253600D01*
X108712000Y-106253600D02*
X108528800Y-106070400D01*
X108528800Y-106070400D02*
X107492800Y-106070400D01*
X107492800Y-106070400D02*
X106303900Y-104881500D01*
X106303900Y-104881500D02*
X103678500Y-104881500D01*
X86766400Y-120122000D02*
X81773200Y-120122000D01*
X81773200Y-120122000D02*
X81675600Y-120024400D01*
X94978500Y-96400900D02*
X94978500Y-97181500D01*
X91287600Y-92710000D02*
X94978500Y-96400900D01*
X100393500Y-86881500D02*
X100393500Y-94373700D01*
X97585700Y-97181500D02*
X94978500Y-97181500D01*
X100393500Y-94373700D02*
X97585700Y-97181500D01*
X96291400Y-100711000D02*
X96291400Y-98494400D01*
X96291400Y-98494400D02*
X94978500Y-97181500D01*
X95879600Y-74777600D02*
X95879600Y-76606400D01*
X95879600Y-76606400D02*
X95828800Y-76657200D01*
X95828800Y-76657200D02*
X90881200Y-76657200D01*
X88607900Y-75844400D02*
X88328500Y-75565000D01*
X90068400Y-75844400D02*
X88607900Y-75844400D01*
X90881200Y-76657200D02*
X90068400Y-75844400D01*
X112776000Y-92075000D02*
X111480600Y-92075000D01*
X109169200Y-89763600D02*
X109169200Y-80873600D01*
X111480600Y-92075000D02*
X109169200Y-89763600D01*
X86766400Y-120122000D02*
X88201500Y-120122000D01*
X88201500Y-120122000D02*
X89816000Y-120122000D01*
X89816000Y-120122000D02*
X89963000Y-120269000D01*
X89963000Y-120269000D02*
X89963000Y-118237000D01*
X89963000Y-118237000D02*
X89899500Y-118173500D01*
X88201500Y-120122000D02*
X88201500Y-121285000D01*
G04 #@! TO.N,Net-(C3-Pad2)*
X66738500Y-95143000D02*
X68453000Y-95143000D01*
X68453000Y-95143000D02*
X70258000Y-95143000D01*
X70258000Y-95143000D02*
X70278000Y-95123000D01*
X69342000Y-101139000D02*
X69342000Y-99568000D01*
X68453000Y-98679000D02*
X68453000Y-95143000D01*
X69342000Y-99568000D02*
X68453000Y-98679000D01*
D34*
G04 #@! TO.N,EN*
X65485000Y-112903000D02*
X65811400Y-112903000D01*
X71122500Y-120647500D02*
X71122500Y-120347500D01*
X70358000Y-121412000D02*
X71122500Y-120647500D01*
X65811400Y-112903000D02*
X67106800Y-114198400D01*
X71122500Y-120347500D02*
X68862500Y-120347500D01*
X68862500Y-120347500D02*
X68834000Y-120376000D01*
X76617200Y-114995200D02*
X75098400Y-114944400D01*
X75098400Y-114944400D02*
X74980800Y-115062000D01*
X76617200Y-114995200D02*
X81777200Y-114995200D01*
X103678500Y-102341500D02*
X106954500Y-102341500D01*
X83632800Y-114995200D02*
X81777200Y-114995200D01*
X90525600Y-108102400D02*
X83632800Y-114995200D01*
X112623600Y-108102400D02*
X90525600Y-108102400D01*
X112826800Y-108305600D02*
X112623600Y-108102400D01*
X112826800Y-102158800D02*
X112826800Y-108305600D01*
X107137200Y-102158800D02*
X112826800Y-102158800D01*
X106954500Y-102341500D02*
X107137200Y-102158800D01*
G04 #@! TO.N,BTN1*
X76515600Y-118024400D02*
X81675600Y-118024400D01*
X86364000Y-118024400D02*
X86766400Y-117622000D01*
X81675600Y-118024400D02*
X86364000Y-118024400D01*
X86364000Y-118024400D02*
X86766400Y-117622000D01*
X86766400Y-117622000D02*
X86766400Y-115062000D01*
X101518900Y-95991500D02*
X103678500Y-95991500D01*
X101244400Y-96266000D02*
X101518900Y-95991500D01*
X86766400Y-115062000D02*
X89509600Y-112826800D01*
G04 #@! TO.N,Net-(D1-Pad1)*
X83629500Y-79930000D02*
X83629500Y-77169000D01*
G04 #@! TO.N,Net-(D2-Pad2)*
X92599500Y-118173500D02*
X94250500Y-118173500D01*
X94250500Y-118173500D02*
X94932500Y-117491500D01*
G04 #@! TO.N,Net-(D3-Pad2)*
X92663000Y-120269000D02*
X96202500Y-120269000D01*
X97091500Y-119380000D02*
X97091500Y-117491500D01*
X96202500Y-120269000D02*
X97091500Y-119380000D01*
D33*
G04 #@! TO.N,Net-(F1-Pad1)*
X65866000Y-86584000D02*
X68169000Y-86584000D01*
X68817000Y-82313000D02*
X72644000Y-82313000D01*
X68453000Y-82677000D02*
X68817000Y-82313000D01*
X68453000Y-86300000D02*
X68453000Y-82677000D01*
X68169000Y-86584000D02*
X68453000Y-86300000D01*
G04 #@! TO.N,Net-(J1-Pad6)*
X65866000Y-90384000D02*
X65866000Y-90598000D01*
X65080000Y-91384000D02*
X63166000Y-91384000D01*
X65866000Y-90598000D02*
X65080000Y-91384000D01*
X63166000Y-91384000D02*
X63166000Y-84384000D01*
X63166000Y-84384000D02*
X63237000Y-84455000D01*
X63237000Y-84455000D02*
X64937000Y-84455000D01*
X64937000Y-84455000D02*
X65866000Y-85384000D01*
D34*
G04 #@! TO.N,TXD0*
X85678500Y-99801500D02*
X80649900Y-99801500D01*
X70485000Y-107315000D02*
X70485000Y-109029500D01*
X70358000Y-107188000D02*
X70485000Y-107315000D01*
X71983600Y-107188000D02*
X70358000Y-107188000D01*
X73406000Y-105765600D02*
X71983600Y-107188000D01*
X79552800Y-105765600D02*
X73406000Y-105765600D01*
X80010000Y-105308400D02*
X79552800Y-105765600D01*
X80010000Y-100441400D02*
X80010000Y-105308400D01*
X80649900Y-99801500D02*
X80010000Y-100441400D01*
G04 #@! TO.N,RXD0*
X73025000Y-109029500D02*
X73025000Y-107873800D01*
X81249700Y-101071500D02*
X85678500Y-101071500D01*
X80924400Y-101396800D02*
X81249700Y-101071500D01*
X80924400Y-105613200D02*
X80924400Y-101396800D01*
X79756000Y-106781600D02*
X80924400Y-105613200D01*
X74117200Y-106781600D02*
X79756000Y-106781600D01*
X73025000Y-107873800D02*
X74117200Y-106781600D01*
G04 #@! TO.N,DTR*
X68897500Y-112251500D02*
X67598300Y-112251500D01*
X67598300Y-112251500D02*
X66954400Y-111607600D01*
X71122500Y-119047500D02*
X71122500Y-116431100D01*
X71122500Y-116431100D02*
X71221600Y-116332000D01*
G04 #@! TO.N,RST*
X72644000Y-112061000D02*
X74265800Y-112061000D01*
X78105000Y-110464600D02*
X78105000Y-109029500D01*
X77825600Y-110744000D02*
X78105000Y-110464600D01*
X75582800Y-110744000D02*
X77825600Y-110744000D01*
X74265800Y-112061000D02*
X75582800Y-110744000D01*
X73022500Y-120347500D02*
X72082900Y-120347500D01*
X72085200Y-117398800D02*
X72948800Y-116535200D01*
X72085200Y-120345200D02*
X72085200Y-117398800D01*
X72082900Y-120347500D02*
X72085200Y-120345200D01*
G04 #@! TO.N,SD_MISO*
X88963500Y-86881500D02*
X87440300Y-86881500D01*
X86309200Y-85750400D02*
X86309200Y-85699600D01*
X87440300Y-86881500D02*
X86309200Y-85750400D01*
X89217500Y-78994000D02*
X88328500Y-78105000D01*
X96621600Y-78994000D02*
X89217500Y-78994000D01*
X96875600Y-78740000D02*
X96621600Y-78994000D01*
G04 #@! TO.N,SD_CLK*
X103678500Y-89641500D02*
X101468100Y-89641500D01*
X101468100Y-89641500D02*
X101346000Y-89763600D01*
G04 #@! TO.N,SD_MOSI*
X90233500Y-86881500D02*
X90233500Y-84416900D01*
X101142800Y-79044800D02*
X101396800Y-78790800D01*
X101142800Y-80060800D02*
X101142800Y-79044800D01*
X98348800Y-82854800D02*
X101142800Y-80060800D01*
X98348800Y-84023200D02*
X98348800Y-82854800D01*
X98145600Y-84226400D02*
X98348800Y-84023200D01*
X90424000Y-84226400D02*
X98145600Y-84226400D01*
X90233500Y-84416900D02*
X90424000Y-84226400D01*
G04 #@! TO.N,SD_CS*
X99123500Y-86881500D02*
X99123500Y-83146900D01*
X101752400Y-80010000D02*
X102616000Y-79146400D01*
X101752400Y-80518000D02*
X101752400Y-80010000D01*
X99123500Y-83146900D02*
X101752400Y-80518000D01*
X103022400Y-79146400D02*
X102616000Y-79146400D01*
X104444800Y-80568800D02*
X103022400Y-79146400D01*
G04 #@! TO.N,SDA0*
X103678500Y-93451500D02*
X107624700Y-93451500D01*
X112445800Y-96824800D02*
X112776000Y-97155000D01*
X110998000Y-96824800D02*
X112445800Y-96824800D01*
X107624700Y-93451500D02*
X110998000Y-96824800D01*
G04 #@! TO.N,SCL0*
X103678500Y-92181500D02*
X108539100Y-92181500D01*
X112649000Y-94488000D02*
X112776000Y-94615000D01*
X110845600Y-94488000D02*
X112649000Y-94488000D01*
X108539100Y-92181500D02*
X110845600Y-94488000D01*
D35*
G04 #@! TO.N,GPIO0*
X73022500Y-119047500D02*
X73022500Y-117883900D01*
X83484900Y-88371500D02*
X85678500Y-88371500D01*
X83210400Y-88646000D02*
X83484900Y-88371500D01*
X73022500Y-117883900D02*
X73152000Y-117754400D01*
D34*
G04 #@! TO.N,Net-(Q1-Pad5)*
X71122500Y-119697500D02*
X70192900Y-119697500D01*
X71421000Y-114761000D02*
X72644000Y-114761000D01*
X70256400Y-115925600D02*
X71421000Y-114761000D01*
X70256400Y-119634000D02*
X70256400Y-115925600D01*
X70192900Y-119697500D02*
X70256400Y-119634000D01*
G04 #@! TO.N,Net-(Q1-Pad2)*
X68897500Y-114951500D02*
X68897500Y-114033300D01*
X74002900Y-119697500D02*
X73022500Y-119697500D01*
X74371200Y-119329200D02*
X74002900Y-119697500D01*
X74371200Y-117957600D02*
X74371200Y-119329200D01*
X74066400Y-117449600D02*
X74371200Y-117957600D01*
X74066400Y-113639600D02*
X74066400Y-117449600D01*
X74066400Y-113538000D02*
X74066400Y-113639600D01*
X69392800Y-113538000D02*
X74066400Y-113538000D01*
X68897500Y-114033300D02*
X69392800Y-113538000D01*
G04 #@! TO.N,Net-(R1-Pad1)*
X78615500Y-88726000D02*
X77105500Y-88726000D01*
X80725000Y-90725000D02*
X80725000Y-92011500D01*
X80899000Y-90551000D02*
X80725000Y-90725000D01*
X77105500Y-88726000D02*
X77089000Y-88709500D01*
G04 #@! TO.N,Net-(R2-Pad1)*
X80515500Y-88726000D02*
X81614000Y-88726000D01*
X83629500Y-83058000D02*
X83629500Y-82630000D01*
X81661000Y-85026500D02*
X83629500Y-83058000D01*
X81661000Y-88679000D02*
X81661000Y-85026500D01*
X81614000Y-88726000D02*
X81661000Y-88679000D01*
G04 #@! TO.N,Net-(R3-Pad1)*
X80515500Y-86026000D02*
X80515500Y-83140500D01*
X80515500Y-83140500D02*
X80915500Y-82740500D01*
G04 #@! TO.N,Net-(R5-Pad1)*
X76073000Y-97171500D02*
X75708500Y-97171500D01*
X74612500Y-95123000D02*
X72978000Y-95123000D01*
X74612500Y-96075500D02*
X74612500Y-95123000D01*
X75708500Y-97171500D02*
X74612500Y-96075500D01*
G04 #@! TO.N,Net-(R9-Pad1)*
X94932500Y-114791500D02*
X94217500Y-114791500D01*
X91991000Y-103611500D02*
X85678500Y-103611500D01*
X92011500Y-103632000D02*
X91991000Y-103611500D01*
X92075000Y-112649000D02*
X92075000Y-109410500D01*
X94217500Y-114791500D02*
X92075000Y-112649000D01*
G04 #@! TO.N,Net-(R10-Pad1)*
X85678500Y-102341500D02*
X93197500Y-102341500D01*
X97091500Y-112839500D02*
X97091500Y-114791500D01*
X96647000Y-112395000D02*
X97091500Y-112839500D01*
X94742000Y-112395000D02*
X96647000Y-112395000D01*
X93472000Y-111125000D02*
X94742000Y-112395000D01*
X93472000Y-109347000D02*
X93472000Y-111125000D01*
X93472000Y-102616000D02*
X93472000Y-103632000D01*
X93197500Y-102341500D02*
X93472000Y-102616000D01*
G04 #@! TO.N,Net-(T1-Pad6)*
X72646500Y-100377000D02*
X72646500Y-96404500D01*
X72646500Y-96404500D02*
X72978000Y-96073000D01*
G04 #@! TO.N,Net-(T1-Pad4)*
X74546500Y-100377000D02*
X74546500Y-98676500D01*
X72978000Y-92947500D02*
X72978000Y-94173000D01*
X73215500Y-92710000D02*
X72978000Y-92947500D01*
X74168000Y-98298000D02*
X73850500Y-98298000D01*
X74546500Y-98676500D02*
X74168000Y-98298000D01*
D33*
G04 #@! TO.N,Net-(C2-Pad1)*
X69242000Y-103739000D02*
X69342000Y-103839000D01*
X63406000Y-102072000D02*
X64552000Y-102072000D01*
X64552000Y-102072000D02*
X64806000Y-102072000D01*
D34*
X64008000Y-105981500D02*
X64198500Y-105791000D01*
X64198500Y-105791000D02*
X64198500Y-103886000D01*
X64198500Y-102425500D02*
X64552000Y-102072000D01*
X64198500Y-103886000D02*
X64198500Y-102425500D01*
X66611500Y-103739000D02*
X69242000Y-103739000D01*
X69242000Y-103739000D02*
X69342000Y-103839000D01*
X66611500Y-103739000D02*
X64345500Y-103739000D01*
X64345500Y-103739000D02*
X64198500Y-103886000D01*
G04 #@! TD*
D36*
G04 #@! TO.N,GND*
G36*
X120001322Y-76297127D02*
X119696653Y-75561591D01*
X118824609Y-74689547D01*
X117685228Y-74217600D01*
X116451972Y-74217600D01*
X115312591Y-74689547D01*
X114440547Y-75561591D01*
X113968600Y-76700972D01*
X113968600Y-77934228D01*
X114440547Y-79073609D01*
X115312591Y-79945653D01*
X116451972Y-80417600D01*
X117685228Y-80417600D01*
X118824609Y-79945653D01*
X119696653Y-79073609D01*
X119995092Y-78353114D01*
X119879141Y-116616757D01*
X119696653Y-116176191D01*
X118824609Y-115304147D01*
X117685228Y-114832200D01*
X116451972Y-114832200D01*
X115312591Y-115304147D01*
X114440547Y-116176191D01*
X113968600Y-117315572D01*
X113968600Y-118548828D01*
X114440547Y-119688209D01*
X115312591Y-120560253D01*
X115683167Y-120713751D01*
X109190468Y-120700325D01*
X109771255Y-120312255D01*
X110290651Y-119534924D01*
X110473039Y-118618000D01*
X110290651Y-117701076D01*
X109771255Y-116923745D01*
X108993924Y-116404349D01*
X108308453Y-116268000D01*
X107845547Y-116268000D01*
X107160076Y-116404349D01*
X106807000Y-116640267D01*
X106453924Y-116404349D01*
X105768453Y-116268000D01*
X105305547Y-116268000D01*
X104620076Y-116404349D01*
X104348278Y-116585958D01*
X103520205Y-116224515D01*
X103429569Y-116206489D01*
X103047000Y-116568610D01*
X103047000Y-118568000D01*
X103067000Y-118568000D01*
X103067000Y-118668000D01*
X103047000Y-118668000D01*
X103047000Y-118688000D01*
X102947000Y-118688000D01*
X102947000Y-118668000D01*
X102927000Y-118668000D01*
X102927000Y-118568000D01*
X102947000Y-118568000D01*
X102947000Y-116568610D01*
X102564431Y-116206489D01*
X102473795Y-116224515D01*
X102207000Y-116340968D01*
X102207000Y-111424353D01*
X102241283Y-111252000D01*
X102207000Y-111079647D01*
X102207000Y-111079643D01*
X102105463Y-110569184D01*
X101718679Y-109990321D01*
X101572561Y-109892688D01*
X101457273Y-109777400D01*
X112014585Y-109777400D01*
X112084243Y-109823944D01*
X112173248Y-109883415D01*
X112826799Y-110013415D01*
X112826800Y-110013415D01*
X113480353Y-109883415D01*
X114034408Y-109513208D01*
X114404615Y-108959153D01*
X114501800Y-108470572D01*
X114501800Y-108470571D01*
X114534615Y-108305599D01*
X114501800Y-108140628D01*
X114501800Y-102323772D01*
X114534615Y-102158800D01*
X114487545Y-101922161D01*
X114404615Y-101505247D01*
X114034408Y-100951192D01*
X113894553Y-100857744D01*
X113480353Y-100580985D01*
X112991772Y-100483800D01*
X112826800Y-100450985D01*
X112661828Y-100483800D01*
X107302172Y-100483800D01*
X107137200Y-100450985D01*
X106972229Y-100483800D01*
X106972228Y-100483800D01*
X106483647Y-100580985D01*
X106382567Y-100648524D01*
X106340393Y-100436500D01*
X106466702Y-99801500D01*
X106340393Y-99166500D01*
X106466702Y-98531500D01*
X106340393Y-97896500D01*
X106466702Y-97261500D01*
X106340393Y-96626500D01*
X106466702Y-95991500D01*
X106340393Y-95356500D01*
X106386142Y-95126500D01*
X106930893Y-95126500D01*
X109696940Y-97892547D01*
X109790392Y-98032408D01*
X110344447Y-98402615D01*
X110833028Y-98499800D01*
X110850579Y-98503291D01*
X111081745Y-98849255D01*
X111859076Y-99368651D01*
X112544547Y-99505000D01*
X113007453Y-99505000D01*
X113692924Y-99368651D01*
X114470255Y-98849255D01*
X114989651Y-98071924D01*
X115172039Y-97155000D01*
X114989651Y-96238076D01*
X114753733Y-95885000D01*
X114989651Y-95531924D01*
X115172039Y-94615000D01*
X114989651Y-93698076D01*
X114808042Y-93426278D01*
X115169485Y-92598205D01*
X115187511Y-92507569D01*
X114825390Y-92125000D01*
X112826000Y-92125000D01*
X112826000Y-92145000D01*
X112726000Y-92145000D01*
X112726000Y-92125000D01*
X112706000Y-92125000D01*
X112706000Y-92025000D01*
X112726000Y-92025000D01*
X112726000Y-92005000D01*
X112826000Y-92005000D01*
X112826000Y-92025000D01*
X114825390Y-92025000D01*
X115187511Y-91642431D01*
X115169485Y-91551795D01*
X114964381Y-91081898D01*
X115038968Y-90970271D01*
X115155386Y-90385000D01*
X115155386Y-88685000D01*
X115038968Y-88099729D01*
X114707439Y-87603561D01*
X114526000Y-87482327D01*
X114526000Y-81807952D01*
X114560283Y-81635599D01*
X114526000Y-81463246D01*
X114526000Y-81463243D01*
X114424463Y-80952784D01*
X114037679Y-80373921D01*
X113891561Y-80276288D01*
X113459200Y-79843927D01*
X113459200Y-76018353D01*
X113509200Y-75897642D01*
X113509200Y-75181558D01*
X113235166Y-74519982D01*
X112728818Y-74013634D01*
X112067242Y-73739600D01*
X111351158Y-73739600D01*
X111230447Y-73789600D01*
X101061151Y-73789600D01*
X100888799Y-73755317D01*
X100716448Y-73789600D01*
X100716443Y-73789600D01*
X100591716Y-73814410D01*
X100542568Y-73567329D01*
X100520031Y-73533600D01*
X120009696Y-73533600D01*
X120001322Y-76297127D01*
X120001322Y-76297127D01*
G37*
X120001322Y-76297127D02*
X119696653Y-75561591D01*
X118824609Y-74689547D01*
X117685228Y-74217600D01*
X116451972Y-74217600D01*
X115312591Y-74689547D01*
X114440547Y-75561591D01*
X113968600Y-76700972D01*
X113968600Y-77934228D01*
X114440547Y-79073609D01*
X115312591Y-79945653D01*
X116451972Y-80417600D01*
X117685228Y-80417600D01*
X118824609Y-79945653D01*
X119696653Y-79073609D01*
X119995092Y-78353114D01*
X119879141Y-116616757D01*
X119696653Y-116176191D01*
X118824609Y-115304147D01*
X117685228Y-114832200D01*
X116451972Y-114832200D01*
X115312591Y-115304147D01*
X114440547Y-116176191D01*
X113968600Y-117315572D01*
X113968600Y-118548828D01*
X114440547Y-119688209D01*
X115312591Y-120560253D01*
X115683167Y-120713751D01*
X109190468Y-120700325D01*
X109771255Y-120312255D01*
X110290651Y-119534924D01*
X110473039Y-118618000D01*
X110290651Y-117701076D01*
X109771255Y-116923745D01*
X108993924Y-116404349D01*
X108308453Y-116268000D01*
X107845547Y-116268000D01*
X107160076Y-116404349D01*
X106807000Y-116640267D01*
X106453924Y-116404349D01*
X105768453Y-116268000D01*
X105305547Y-116268000D01*
X104620076Y-116404349D01*
X104348278Y-116585958D01*
X103520205Y-116224515D01*
X103429569Y-116206489D01*
X103047000Y-116568610D01*
X103047000Y-118568000D01*
X103067000Y-118568000D01*
X103067000Y-118668000D01*
X103047000Y-118668000D01*
X103047000Y-118688000D01*
X102947000Y-118688000D01*
X102947000Y-118668000D01*
X102927000Y-118668000D01*
X102927000Y-118568000D01*
X102947000Y-118568000D01*
X102947000Y-116568610D01*
X102564431Y-116206489D01*
X102473795Y-116224515D01*
X102207000Y-116340968D01*
X102207000Y-111424353D01*
X102241283Y-111252000D01*
X102207000Y-111079647D01*
X102207000Y-111079643D01*
X102105463Y-110569184D01*
X101718679Y-109990321D01*
X101572561Y-109892688D01*
X101457273Y-109777400D01*
X112014585Y-109777400D01*
X112084243Y-109823944D01*
X112173248Y-109883415D01*
X112826799Y-110013415D01*
X112826800Y-110013415D01*
X113480353Y-109883415D01*
X114034408Y-109513208D01*
X114404615Y-108959153D01*
X114501800Y-108470572D01*
X114501800Y-108470571D01*
X114534615Y-108305599D01*
X114501800Y-108140628D01*
X114501800Y-102323772D01*
X114534615Y-102158800D01*
X114487545Y-101922161D01*
X114404615Y-101505247D01*
X114034408Y-100951192D01*
X113894553Y-100857744D01*
X113480353Y-100580985D01*
X112991772Y-100483800D01*
X112826800Y-100450985D01*
X112661828Y-100483800D01*
X107302172Y-100483800D01*
X107137200Y-100450985D01*
X106972229Y-100483800D01*
X106972228Y-100483800D01*
X106483647Y-100580985D01*
X106382567Y-100648524D01*
X106340393Y-100436500D01*
X106466702Y-99801500D01*
X106340393Y-99166500D01*
X106466702Y-98531500D01*
X106340393Y-97896500D01*
X106466702Y-97261500D01*
X106340393Y-96626500D01*
X106466702Y-95991500D01*
X106340393Y-95356500D01*
X106386142Y-95126500D01*
X106930893Y-95126500D01*
X109696940Y-97892547D01*
X109790392Y-98032408D01*
X110344447Y-98402615D01*
X110833028Y-98499800D01*
X110850579Y-98503291D01*
X111081745Y-98849255D01*
X111859076Y-99368651D01*
X112544547Y-99505000D01*
X113007453Y-99505000D01*
X113692924Y-99368651D01*
X114470255Y-98849255D01*
X114989651Y-98071924D01*
X115172039Y-97155000D01*
X114989651Y-96238076D01*
X114753733Y-95885000D01*
X114989651Y-95531924D01*
X115172039Y-94615000D01*
X114989651Y-93698076D01*
X114808042Y-93426278D01*
X115169485Y-92598205D01*
X115187511Y-92507569D01*
X114825390Y-92125000D01*
X112826000Y-92125000D01*
X112826000Y-92145000D01*
X112726000Y-92145000D01*
X112726000Y-92125000D01*
X112706000Y-92125000D01*
X112706000Y-92025000D01*
X112726000Y-92025000D01*
X112726000Y-92005000D01*
X112826000Y-92005000D01*
X112826000Y-92025000D01*
X114825390Y-92025000D01*
X115187511Y-91642431D01*
X115169485Y-91551795D01*
X114964381Y-91081898D01*
X115038968Y-90970271D01*
X115155386Y-90385000D01*
X115155386Y-88685000D01*
X115038968Y-88099729D01*
X114707439Y-87603561D01*
X114526000Y-87482327D01*
X114526000Y-81807952D01*
X114560283Y-81635599D01*
X114526000Y-81463246D01*
X114526000Y-81463243D01*
X114424463Y-80952784D01*
X114037679Y-80373921D01*
X113891561Y-80276288D01*
X113459200Y-79843927D01*
X113459200Y-76018353D01*
X113509200Y-75897642D01*
X113509200Y-75181558D01*
X113235166Y-74519982D01*
X112728818Y-74013634D01*
X112067242Y-73739600D01*
X111351158Y-73739600D01*
X111230447Y-73789600D01*
X101061151Y-73789600D01*
X100888799Y-73755317D01*
X100716448Y-73789600D01*
X100716443Y-73789600D01*
X100591716Y-73814410D01*
X100542568Y-73567329D01*
X100520031Y-73533600D01*
X120009696Y-73533600D01*
X120001322Y-76297127D01*
G36*
X79750600Y-119974400D02*
X81625600Y-119974400D01*
X81625600Y-119954400D01*
X81725600Y-119954400D01*
X81725600Y-119974400D01*
X83600600Y-119974400D01*
X83875600Y-119699400D01*
X84568800Y-119699400D01*
X84941400Y-120072000D01*
X86716400Y-120072000D01*
X86716400Y-120052000D01*
X86816400Y-120052000D01*
X86816400Y-120072000D01*
X86836400Y-120072000D01*
X86836400Y-120172000D01*
X86816400Y-120172000D01*
X86816400Y-120192000D01*
X86716400Y-120192000D01*
X86716400Y-120172000D01*
X84941400Y-120172000D01*
X84541400Y-120572000D01*
X84541400Y-120649355D01*
X84000600Y-120648237D01*
X84000600Y-120474400D01*
X83600600Y-120074400D01*
X81725600Y-120074400D01*
X81725600Y-120094400D01*
X81625600Y-120094400D01*
X81625600Y-120074400D01*
X79750600Y-120074400D01*
X79350600Y-120474400D01*
X79350600Y-120638621D01*
X78840600Y-120637567D01*
X78840600Y-120474400D01*
X78440600Y-120074400D01*
X76565600Y-120074400D01*
X76565600Y-120094400D01*
X76465600Y-120094400D01*
X76465600Y-120074400D01*
X76445600Y-120074400D01*
X76445600Y-119974400D01*
X76465600Y-119974400D01*
X76465600Y-119954400D01*
X76565600Y-119954400D01*
X76565600Y-119974400D01*
X78440600Y-119974400D01*
X78715600Y-119699400D01*
X79475600Y-119699400D01*
X79750600Y-119974400D01*
X79750600Y-119974400D01*
G37*
X79750600Y-119974400D02*
X81625600Y-119974400D01*
X81625600Y-119954400D01*
X81725600Y-119954400D01*
X81725600Y-119974400D01*
X83600600Y-119974400D01*
X83875600Y-119699400D01*
X84568800Y-119699400D01*
X84941400Y-120072000D01*
X86716400Y-120072000D01*
X86716400Y-120052000D01*
X86816400Y-120052000D01*
X86816400Y-120072000D01*
X86836400Y-120072000D01*
X86836400Y-120172000D01*
X86816400Y-120172000D01*
X86816400Y-120192000D01*
X86716400Y-120192000D01*
X86716400Y-120172000D01*
X84941400Y-120172000D01*
X84541400Y-120572000D01*
X84541400Y-120649355D01*
X84000600Y-120648237D01*
X84000600Y-120474400D01*
X83600600Y-120074400D01*
X81725600Y-120074400D01*
X81725600Y-120094400D01*
X81625600Y-120094400D01*
X81625600Y-120074400D01*
X79750600Y-120074400D01*
X79350600Y-120474400D01*
X79350600Y-120638621D01*
X78840600Y-120637567D01*
X78840600Y-120474400D01*
X78440600Y-120074400D01*
X76565600Y-120074400D01*
X76565600Y-120094400D01*
X76465600Y-120094400D01*
X76465600Y-120074400D01*
X76445600Y-120074400D01*
X76445600Y-119974400D01*
X76465600Y-119974400D01*
X76465600Y-119954400D01*
X76565600Y-119954400D01*
X76565600Y-119974400D01*
X78440600Y-119974400D01*
X78715600Y-119699400D01*
X79475600Y-119699400D01*
X79750600Y-119974400D01*
G36*
X90013000Y-120219000D02*
X90033000Y-120219000D01*
X90033000Y-120319000D01*
X90013000Y-120319000D01*
X90013000Y-120339000D01*
X89949502Y-120339000D01*
X89949502Y-120199000D01*
X90013000Y-120199000D01*
X90013000Y-120219000D01*
X90013000Y-120219000D01*
G37*
X90013000Y-120219000D02*
X90033000Y-120219000D01*
X90033000Y-120319000D01*
X90013000Y-120319000D01*
X90013000Y-120339000D01*
X89949502Y-120339000D01*
X89949502Y-120199000D01*
X90013000Y-120199000D01*
X90013000Y-120219000D01*
G36*
X92791457Y-115734264D02*
X92843145Y-115994114D01*
X91849500Y-115994114D01*
X91368987Y-116089694D01*
X90967760Y-115923500D01*
X90349500Y-115923500D01*
X89949500Y-116323500D01*
X89949500Y-118019000D01*
X89912998Y-118019000D01*
X89912998Y-118243500D01*
X89849500Y-118243500D01*
X89849500Y-118223500D01*
X89829500Y-118223500D01*
X89829500Y-118123500D01*
X89849500Y-118123500D01*
X89849500Y-116323500D01*
X89449500Y-115923500D01*
X88831240Y-115923500D01*
X88620102Y-116010956D01*
X88490855Y-115817523D01*
X89829471Y-114726800D01*
X89887533Y-114726800D01*
X90585863Y-114437542D01*
X91040299Y-113983106D01*
X92791457Y-115734264D01*
X92791457Y-115734264D01*
G37*
X92791457Y-115734264D02*
X92843145Y-115994114D01*
X91849500Y-115994114D01*
X91368987Y-116089694D01*
X90967760Y-115923500D01*
X90349500Y-115923500D01*
X89949500Y-116323500D01*
X89949500Y-118019000D01*
X89912998Y-118019000D01*
X89912998Y-118243500D01*
X89849500Y-118243500D01*
X89849500Y-118223500D01*
X89829500Y-118223500D01*
X89829500Y-118123500D01*
X89849500Y-118123500D01*
X89849500Y-116323500D01*
X89449500Y-115923500D01*
X88831240Y-115923500D01*
X88620102Y-116010956D01*
X88490855Y-115817523D01*
X89829471Y-114726800D01*
X89887533Y-114726800D01*
X90585863Y-114437542D01*
X91040299Y-113983106D01*
X92791457Y-115734264D01*
G36*
X62035000Y-115082386D02*
X62677801Y-115082386D01*
X62632991Y-115100947D01*
X61760947Y-115972991D01*
X61557500Y-116464156D01*
X61557500Y-114987405D01*
X62035000Y-115082386D01*
X62035000Y-115082386D01*
G37*
X62035000Y-115082386D02*
X62677801Y-115082386D01*
X62632991Y-115100947D01*
X61760947Y-115972991D01*
X61557500Y-116464156D01*
X61557500Y-114987405D01*
X62035000Y-115082386D01*
G36*
X99123500Y-89669702D02*
X99446000Y-89605553D01*
X99446000Y-90141533D01*
X99735258Y-90839863D01*
X100269737Y-91374342D01*
X100968067Y-91663600D01*
X100993315Y-91663600D01*
X100890298Y-92181500D01*
X101016607Y-92816500D01*
X100890298Y-93451500D01*
X101016607Y-94086500D01*
X100961011Y-94366000D01*
X100866467Y-94366000D01*
X100168137Y-94655258D01*
X99633658Y-95189737D01*
X99578500Y-95322900D01*
X99578500Y-93863240D01*
X99334915Y-93275173D01*
X98884827Y-92825086D01*
X98296760Y-92581500D01*
X95428500Y-92581500D01*
X95028500Y-92981500D01*
X95028500Y-97131500D01*
X95048500Y-97131500D01*
X95048500Y-97231500D01*
X95028500Y-97231500D01*
X95028500Y-101381500D01*
X95428500Y-101781500D01*
X98296760Y-101781500D01*
X98393104Y-101741593D01*
X98859772Y-102716105D01*
X98884737Y-102841615D01*
X99008761Y-103027230D01*
X99029283Y-103070085D01*
X99104343Y-103170280D01*
X99173889Y-103274362D01*
X99207484Y-103307957D01*
X99341331Y-103486623D01*
X99451410Y-103551883D01*
X100626590Y-104727064D01*
X100724221Y-104873179D01*
X100870336Y-104970810D01*
X100870337Y-104970811D01*
X101047982Y-105089510D01*
X100862163Y-105251480D01*
X100965413Y-105619808D01*
X101393576Y-106295714D01*
X101580619Y-106427400D01*
X90690571Y-106427400D01*
X90525599Y-106394585D01*
X90274404Y-106444551D01*
X89872047Y-106524585D01*
X89317992Y-106894792D01*
X89224542Y-107034650D01*
X84052424Y-112206769D01*
X83858615Y-111738873D01*
X83408527Y-111288786D01*
X82820460Y-111045200D01*
X82227200Y-111045200D01*
X81827200Y-111445200D01*
X81827200Y-112945200D01*
X81847200Y-112945200D01*
X81847200Y-113045200D01*
X81827200Y-113045200D01*
X81827200Y-113065200D01*
X81727200Y-113065200D01*
X81727200Y-113045200D01*
X79852200Y-113045200D01*
X79577200Y-113320200D01*
X78817200Y-113320200D01*
X78542200Y-113045200D01*
X76667200Y-113045200D01*
X76667200Y-113065200D01*
X76567200Y-113065200D01*
X76567200Y-113045200D01*
X76547200Y-113045200D01*
X76547200Y-112945200D01*
X76567200Y-112945200D01*
X76567200Y-112925200D01*
X76667200Y-112925200D01*
X76667200Y-112945200D01*
X78542200Y-112945200D01*
X78942200Y-112545200D01*
X78942200Y-112326940D01*
X79452200Y-112326940D01*
X79452200Y-112545200D01*
X79852200Y-112945200D01*
X81727200Y-112945200D01*
X81727200Y-111445200D01*
X81327200Y-111045200D01*
X80733940Y-111045200D01*
X80145873Y-111288786D01*
X79695785Y-111738873D01*
X79452200Y-112326940D01*
X78942200Y-112326940D01*
X78840162Y-112080597D01*
X79033208Y-111951608D01*
X79126660Y-111811747D01*
X79172748Y-111765659D01*
X79312608Y-111672208D01*
X79682815Y-111118153D01*
X79755443Y-110753029D01*
X79799255Y-110723755D01*
X80318651Y-109946424D01*
X80501039Y-109029500D01*
X80369341Y-108367414D01*
X80409553Y-108359415D01*
X80963608Y-107989208D01*
X81057060Y-107849348D01*
X81992150Y-106914258D01*
X82132008Y-106820808D01*
X82502215Y-106266753D01*
X82554884Y-106001968D01*
X82632215Y-105613201D01*
X82599400Y-105448229D01*
X82599400Y-102746500D01*
X82970858Y-102746500D01*
X83016607Y-102976500D01*
X82890298Y-103611500D01*
X82988735Y-104106376D01*
X82965413Y-104143192D01*
X82862163Y-104511520D01*
X83229258Y-104831500D01*
X83348434Y-104831500D01*
X83415252Y-104931500D01*
X83229258Y-104931500D01*
X82862163Y-105251480D01*
X82965413Y-105619808D01*
X83393576Y-106295714D01*
X84047805Y-106756319D01*
X84828500Y-106931500D01*
X85628500Y-106931500D01*
X85628500Y-105561500D01*
X85728500Y-105561500D01*
X85728500Y-106931500D01*
X86528500Y-106931500D01*
X87309195Y-106756319D01*
X87963424Y-106295714D01*
X88391587Y-105619808D01*
X88485020Y-105286500D01*
X91040878Y-105286500D01*
X91633567Y-105532000D01*
X92389433Y-105532000D01*
X92741750Y-105386065D01*
X93094067Y-105532000D01*
X93849933Y-105532000D01*
X94548263Y-105242742D01*
X95082742Y-104708263D01*
X95372000Y-104009933D01*
X95372000Y-103254067D01*
X95156420Y-102733612D01*
X95179815Y-102616000D01*
X95137624Y-102403892D01*
X95049815Y-101962447D01*
X94768529Y-101541471D01*
X94928500Y-101381500D01*
X94928500Y-97231500D01*
X90778500Y-97231500D01*
X90378500Y-97631500D01*
X90378500Y-100499760D01*
X90447566Y-100666500D01*
X88386142Y-100666500D01*
X88340393Y-100436500D01*
X88466702Y-99801500D01*
X88340393Y-99166500D01*
X88466702Y-98531500D01*
X88340393Y-97896500D01*
X88466702Y-97261500D01*
X88340393Y-96626500D01*
X88466702Y-95991500D01*
X88340393Y-95356500D01*
X88466702Y-94721500D01*
X88340393Y-94086500D01*
X88384802Y-93863240D01*
X90378500Y-93863240D01*
X90378500Y-96731500D01*
X90778500Y-97131500D01*
X94928500Y-97131500D01*
X94928500Y-92981500D01*
X94528500Y-92581500D01*
X91660240Y-92581500D01*
X91072173Y-92825086D01*
X90622085Y-93275173D01*
X90378500Y-93863240D01*
X88384802Y-93863240D01*
X88466702Y-93451500D01*
X88340393Y-92816500D01*
X88466702Y-92181500D01*
X88340393Y-91546500D01*
X88466702Y-90911500D01*
X88340393Y-90276500D01*
X88466702Y-89641500D01*
X88452077Y-89567973D01*
X88963500Y-89669702D01*
X89598500Y-89543392D01*
X90233500Y-89669702D01*
X90868500Y-89543392D01*
X91503500Y-89669702D01*
X92138500Y-89543392D01*
X92773500Y-89669702D01*
X93408500Y-89543392D01*
X94043500Y-89669702D01*
X94678500Y-89543392D01*
X95313500Y-89669702D01*
X95948500Y-89543392D01*
X96583500Y-89669702D01*
X97218500Y-89543392D01*
X97853500Y-89669702D01*
X98488500Y-89543392D01*
X99123500Y-89669702D01*
X99123500Y-89669702D01*
G37*
X99123500Y-89669702D02*
X99446000Y-89605553D01*
X99446000Y-90141533D01*
X99735258Y-90839863D01*
X100269737Y-91374342D01*
X100968067Y-91663600D01*
X100993315Y-91663600D01*
X100890298Y-92181500D01*
X101016607Y-92816500D01*
X100890298Y-93451500D01*
X101016607Y-94086500D01*
X100961011Y-94366000D01*
X100866467Y-94366000D01*
X100168137Y-94655258D01*
X99633658Y-95189737D01*
X99578500Y-95322900D01*
X99578500Y-93863240D01*
X99334915Y-93275173D01*
X98884827Y-92825086D01*
X98296760Y-92581500D01*
X95428500Y-92581500D01*
X95028500Y-92981500D01*
X95028500Y-97131500D01*
X95048500Y-97131500D01*
X95048500Y-97231500D01*
X95028500Y-97231500D01*
X95028500Y-101381500D01*
X95428500Y-101781500D01*
X98296760Y-101781500D01*
X98393104Y-101741593D01*
X98859772Y-102716105D01*
X98884737Y-102841615D01*
X99008761Y-103027230D01*
X99029283Y-103070085D01*
X99104343Y-103170280D01*
X99173889Y-103274362D01*
X99207484Y-103307957D01*
X99341331Y-103486623D01*
X99451410Y-103551883D01*
X100626590Y-104727064D01*
X100724221Y-104873179D01*
X100870336Y-104970810D01*
X100870337Y-104970811D01*
X101047982Y-105089510D01*
X100862163Y-105251480D01*
X100965413Y-105619808D01*
X101393576Y-106295714D01*
X101580619Y-106427400D01*
X90690571Y-106427400D01*
X90525599Y-106394585D01*
X90274404Y-106444551D01*
X89872047Y-106524585D01*
X89317992Y-106894792D01*
X89224542Y-107034650D01*
X84052424Y-112206769D01*
X83858615Y-111738873D01*
X83408527Y-111288786D01*
X82820460Y-111045200D01*
X82227200Y-111045200D01*
X81827200Y-111445200D01*
X81827200Y-112945200D01*
X81847200Y-112945200D01*
X81847200Y-113045200D01*
X81827200Y-113045200D01*
X81827200Y-113065200D01*
X81727200Y-113065200D01*
X81727200Y-113045200D01*
X79852200Y-113045200D01*
X79577200Y-113320200D01*
X78817200Y-113320200D01*
X78542200Y-113045200D01*
X76667200Y-113045200D01*
X76667200Y-113065200D01*
X76567200Y-113065200D01*
X76567200Y-113045200D01*
X76547200Y-113045200D01*
X76547200Y-112945200D01*
X76567200Y-112945200D01*
X76567200Y-112925200D01*
X76667200Y-112925200D01*
X76667200Y-112945200D01*
X78542200Y-112945200D01*
X78942200Y-112545200D01*
X78942200Y-112326940D01*
X79452200Y-112326940D01*
X79452200Y-112545200D01*
X79852200Y-112945200D01*
X81727200Y-112945200D01*
X81727200Y-111445200D01*
X81327200Y-111045200D01*
X80733940Y-111045200D01*
X80145873Y-111288786D01*
X79695785Y-111738873D01*
X79452200Y-112326940D01*
X78942200Y-112326940D01*
X78840162Y-112080597D01*
X79033208Y-111951608D01*
X79126660Y-111811747D01*
X79172748Y-111765659D01*
X79312608Y-111672208D01*
X79682815Y-111118153D01*
X79755443Y-110753029D01*
X79799255Y-110723755D01*
X80318651Y-109946424D01*
X80501039Y-109029500D01*
X80369341Y-108367414D01*
X80409553Y-108359415D01*
X80963608Y-107989208D01*
X81057060Y-107849348D01*
X81992150Y-106914258D01*
X82132008Y-106820808D01*
X82502215Y-106266753D01*
X82554884Y-106001968D01*
X82632215Y-105613201D01*
X82599400Y-105448229D01*
X82599400Y-102746500D01*
X82970858Y-102746500D01*
X83016607Y-102976500D01*
X82890298Y-103611500D01*
X82988735Y-104106376D01*
X82965413Y-104143192D01*
X82862163Y-104511520D01*
X83229258Y-104831500D01*
X83348434Y-104831500D01*
X83415252Y-104931500D01*
X83229258Y-104931500D01*
X82862163Y-105251480D01*
X82965413Y-105619808D01*
X83393576Y-106295714D01*
X84047805Y-106756319D01*
X84828500Y-106931500D01*
X85628500Y-106931500D01*
X85628500Y-105561500D01*
X85728500Y-105561500D01*
X85728500Y-106931500D01*
X86528500Y-106931500D01*
X87309195Y-106756319D01*
X87963424Y-106295714D01*
X88391587Y-105619808D01*
X88485020Y-105286500D01*
X91040878Y-105286500D01*
X91633567Y-105532000D01*
X92389433Y-105532000D01*
X92741750Y-105386065D01*
X93094067Y-105532000D01*
X93849933Y-105532000D01*
X94548263Y-105242742D01*
X95082742Y-104708263D01*
X95372000Y-104009933D01*
X95372000Y-103254067D01*
X95156420Y-102733612D01*
X95179815Y-102616000D01*
X95137624Y-102403892D01*
X95049815Y-101962447D01*
X94768529Y-101541471D01*
X94928500Y-101381500D01*
X94928500Y-97231500D01*
X90778500Y-97231500D01*
X90378500Y-97631500D01*
X90378500Y-100499760D01*
X90447566Y-100666500D01*
X88386142Y-100666500D01*
X88340393Y-100436500D01*
X88466702Y-99801500D01*
X88340393Y-99166500D01*
X88466702Y-98531500D01*
X88340393Y-97896500D01*
X88466702Y-97261500D01*
X88340393Y-96626500D01*
X88466702Y-95991500D01*
X88340393Y-95356500D01*
X88466702Y-94721500D01*
X88340393Y-94086500D01*
X88384802Y-93863240D01*
X90378500Y-93863240D01*
X90378500Y-96731500D01*
X90778500Y-97131500D01*
X94928500Y-97131500D01*
X94928500Y-92981500D01*
X94528500Y-92581500D01*
X91660240Y-92581500D01*
X91072173Y-92825086D01*
X90622085Y-93275173D01*
X90378500Y-93863240D01*
X88384802Y-93863240D01*
X88466702Y-93451500D01*
X88340393Y-92816500D01*
X88466702Y-92181500D01*
X88340393Y-91546500D01*
X88466702Y-90911500D01*
X88340393Y-90276500D01*
X88466702Y-89641500D01*
X88452077Y-89567973D01*
X88963500Y-89669702D01*
X89598500Y-89543392D01*
X90233500Y-89669702D01*
X90868500Y-89543392D01*
X91503500Y-89669702D01*
X92138500Y-89543392D01*
X92773500Y-89669702D01*
X93408500Y-89543392D01*
X94043500Y-89669702D01*
X94678500Y-89543392D01*
X95313500Y-89669702D01*
X95948500Y-89543392D01*
X96583500Y-89669702D01*
X97218500Y-89543392D01*
X97853500Y-89669702D01*
X98488500Y-89543392D01*
X99123500Y-89669702D01*
G36*
X65455000Y-108979500D02*
X65475000Y-108979500D01*
X65475000Y-109079500D01*
X65455000Y-109079500D01*
X65455000Y-109099500D01*
X65355000Y-109099500D01*
X65355000Y-109079500D01*
X65335000Y-109079500D01*
X65335000Y-108979500D01*
X65355000Y-108979500D01*
X65355000Y-108959500D01*
X65455000Y-108959500D01*
X65455000Y-108979500D01*
X65455000Y-108979500D01*
G37*
X65455000Y-108979500D02*
X65475000Y-108979500D01*
X65475000Y-109079500D01*
X65455000Y-109079500D01*
X65455000Y-109099500D01*
X65355000Y-109099500D01*
X65355000Y-109079500D01*
X65335000Y-109079500D01*
X65335000Y-108979500D01*
X65355000Y-108979500D01*
X65355000Y-108959500D01*
X65455000Y-108959500D01*
X65455000Y-108979500D01*
G36*
X68106729Y-106001968D02*
X68692000Y-106118386D01*
X69058188Y-106118386D01*
X68780185Y-106534447D01*
X68729452Y-106789499D01*
X68176453Y-106679500D01*
X67713547Y-106679500D01*
X67028076Y-106815849D01*
X66756278Y-106997458D01*
X65928205Y-106636015D01*
X65837569Y-106617989D01*
X65777255Y-106675079D01*
X65908000Y-106359433D01*
X65908000Y-106002771D01*
X65986500Y-106018386D01*
X67236500Y-106018386D01*
X67821771Y-105901968D01*
X67889420Y-105856767D01*
X68106729Y-106001968D01*
X68106729Y-106001968D01*
G37*
X68106729Y-106001968D02*
X68692000Y-106118386D01*
X69058188Y-106118386D01*
X68780185Y-106534447D01*
X68729452Y-106789499D01*
X68176453Y-106679500D01*
X67713547Y-106679500D01*
X67028076Y-106815849D01*
X66756278Y-106997458D01*
X65928205Y-106636015D01*
X65837569Y-106617989D01*
X65777255Y-106675079D01*
X65908000Y-106359433D01*
X65908000Y-106002771D01*
X65986500Y-106018386D01*
X67236500Y-106018386D01*
X67821771Y-105901968D01*
X67889420Y-105856767D01*
X68106729Y-106001968D01*
G36*
X106487000Y-105803600D02*
X106887000Y-106203600D01*
X108662000Y-106203600D01*
X108662000Y-106183600D01*
X108762000Y-106183600D01*
X108762000Y-106203600D01*
X110998800Y-106203600D01*
X110998800Y-106183600D01*
X111098800Y-106183600D01*
X111098800Y-106203600D01*
X111118800Y-106203600D01*
X111118800Y-106303600D01*
X111098800Y-106303600D01*
X111098800Y-106323600D01*
X110998800Y-106323600D01*
X110998800Y-106303600D01*
X108762000Y-106303600D01*
X108762000Y-106323600D01*
X108662000Y-106323600D01*
X108662000Y-106303600D01*
X106887000Y-106303600D01*
X106763200Y-106427400D01*
X105776381Y-106427400D01*
X105963424Y-106295714D01*
X106391587Y-105619808D01*
X106463996Y-105361500D01*
X106487000Y-105361500D01*
X106487000Y-105803600D01*
X106487000Y-105803600D01*
G37*
X106487000Y-105803600D02*
X106887000Y-106203600D01*
X108662000Y-106203600D01*
X108662000Y-106183600D01*
X108762000Y-106183600D01*
X108762000Y-106203600D01*
X110998800Y-106203600D01*
X110998800Y-106183600D01*
X111098800Y-106183600D01*
X111098800Y-106203600D01*
X111118800Y-106203600D01*
X111118800Y-106303600D01*
X111098800Y-106303600D01*
X111098800Y-106323600D01*
X110998800Y-106323600D01*
X110998800Y-106303600D01*
X108762000Y-106303600D01*
X108762000Y-106323600D01*
X108662000Y-106323600D01*
X108662000Y-106303600D01*
X106887000Y-106303600D01*
X106763200Y-106427400D01*
X105776381Y-106427400D01*
X105963424Y-106295714D01*
X106391587Y-105619808D01*
X106463996Y-105361500D01*
X106487000Y-105361500D01*
X106487000Y-105803600D01*
G36*
X71415173Y-105213415D02*
X71538354Y-105264438D01*
X71289793Y-105513000D01*
X71178636Y-105513000D01*
X71393377Y-105191619D01*
X71415173Y-105213415D01*
X71415173Y-105213415D01*
G37*
X71415173Y-105213415D02*
X71538354Y-105264438D01*
X71289793Y-105513000D01*
X71178636Y-105513000D01*
X71393377Y-105191619D01*
X71415173Y-105213415D01*
G36*
X78335000Y-101876960D02*
X78335001Y-104090600D01*
X77691969Y-104090600D01*
X77909500Y-103565433D01*
X77909500Y-102809567D01*
X77620242Y-102111237D01*
X77435805Y-101926800D01*
X77878842Y-101926800D01*
X77999553Y-101876800D01*
X78181757Y-101876800D01*
X78335000Y-101876960D01*
X78335000Y-101876960D01*
G37*
X78335000Y-101876960D02*
X78335001Y-104090600D01*
X77691969Y-104090600D01*
X77909500Y-103565433D01*
X77909500Y-102809567D01*
X77620242Y-102111237D01*
X77435805Y-101926800D01*
X77878842Y-101926800D01*
X77999553Y-101876800D01*
X78181757Y-101876800D01*
X78335000Y-101876960D01*
G36*
X70328000Y-97598000D02*
X70728000Y-97998000D01*
X70971501Y-97998000D01*
X70971500Y-98856804D01*
X70603679Y-98306321D01*
X70457559Y-98208687D01*
X70203000Y-97954128D01*
X70203000Y-97623000D01*
X70228000Y-97598000D01*
X70228000Y-96977386D01*
X70328000Y-96977386D01*
X70328000Y-97598000D01*
X70328000Y-97598000D01*
G37*
X70328000Y-97598000D02*
X70728000Y-97998000D01*
X70971501Y-97998000D01*
X70971500Y-98856804D01*
X70603679Y-98306321D01*
X70457559Y-98208687D01*
X70203000Y-97954128D01*
X70203000Y-97623000D01*
X70228000Y-97598000D01*
X70228000Y-96977386D01*
X70328000Y-96977386D01*
X70328000Y-97598000D01*
G36*
X66703000Y-97604500D02*
X66668500Y-97604500D01*
X66668500Y-97593000D01*
X66688500Y-97593000D01*
X66688500Y-97573000D01*
X66703000Y-97573000D01*
X66703000Y-97604500D01*
X66703000Y-97604500D01*
G37*
X66703000Y-97604500D02*
X66668500Y-97604500D01*
X66668500Y-97593000D01*
X66688500Y-97593000D01*
X66688500Y-97573000D01*
X66703000Y-97573000D01*
X66703000Y-97604500D01*
G36*
X65032061Y-93311561D02*
X64700532Y-93807729D01*
X64584114Y-94393000D01*
X64584114Y-95162873D01*
X64568968Y-95086729D01*
X64237439Y-94590561D01*
X63741271Y-94259032D01*
X63156000Y-94142614D01*
X62356000Y-94142614D01*
X61770729Y-94259032D01*
X61651000Y-94339032D01*
X61557500Y-94276558D01*
X61557500Y-94196500D01*
X61632840Y-94196500D01*
X61785500Y-94226866D01*
X61938160Y-94196500D01*
X62390280Y-94106568D01*
X62902988Y-93763988D01*
X63156887Y-93384000D01*
X63637982Y-93384000D01*
X64221361Y-93267959D01*
X64421844Y-93134000D01*
X64907647Y-93134000D01*
X65080000Y-93168283D01*
X65252353Y-93134000D01*
X65252357Y-93134000D01*
X65317062Y-93121129D01*
X65032061Y-93311561D01*
X65032061Y-93311561D01*
G37*
X65032061Y-93311561D02*
X64700532Y-93807729D01*
X64584114Y-94393000D01*
X64584114Y-95162873D01*
X64568968Y-95086729D01*
X64237439Y-94590561D01*
X63741271Y-94259032D01*
X63156000Y-94142614D01*
X62356000Y-94142614D01*
X61770729Y-94259032D01*
X61651000Y-94339032D01*
X61557500Y-94276558D01*
X61557500Y-94196500D01*
X61632840Y-94196500D01*
X61785500Y-94226866D01*
X61938160Y-94196500D01*
X62390280Y-94106568D01*
X62902988Y-93763988D01*
X63156887Y-93384000D01*
X63637982Y-93384000D01*
X64221361Y-93267959D01*
X64421844Y-93134000D01*
X64907647Y-93134000D01*
X65080000Y-93168283D01*
X65252353Y-93134000D01*
X65252357Y-93134000D01*
X65317062Y-93121129D01*
X65032061Y-93311561D01*
G36*
X69264184Y-91056463D02*
X69774643Y-91158000D01*
X69774647Y-91158000D01*
X69947000Y-91192283D01*
X69961998Y-91189300D01*
X69977000Y-91192284D01*
X70149356Y-91158000D01*
X70149357Y-91158000D01*
X70659816Y-91056463D01*
X70718813Y-91017042D01*
X71204643Y-91341663D01*
X71559890Y-91412326D01*
X71572821Y-91431679D01*
X71713091Y-91525404D01*
X71604758Y-91633737D01*
X71315500Y-92332067D01*
X71315500Y-92369834D01*
X71058000Y-92318614D01*
X69498000Y-92318614D01*
X68912729Y-92435032D01*
X68416561Y-92766561D01*
X68173563Y-93130233D01*
X67948771Y-92980032D01*
X67363500Y-92863614D01*
X66113500Y-92863614D01*
X65973983Y-92891366D01*
X66341679Y-92645679D01*
X66439312Y-92499560D01*
X66521584Y-92417288D01*
X66636607Y-92394409D01*
X67289895Y-91957895D01*
X67726409Y-91304607D01*
X67800127Y-90934000D01*
X69080905Y-90934000D01*
X69264184Y-91056463D01*
X69264184Y-91056463D01*
G37*
X69264184Y-91056463D02*
X69774643Y-91158000D01*
X69774647Y-91158000D01*
X69947000Y-91192283D01*
X69961998Y-91189300D01*
X69977000Y-91192284D01*
X70149356Y-91158000D01*
X70149357Y-91158000D01*
X70659816Y-91056463D01*
X70718813Y-91017042D01*
X71204643Y-91341663D01*
X71559890Y-91412326D01*
X71572821Y-91431679D01*
X71713091Y-91525404D01*
X71604758Y-91633737D01*
X71315500Y-92332067D01*
X71315500Y-92369834D01*
X71058000Y-92318614D01*
X69498000Y-92318614D01*
X68912729Y-92435032D01*
X68416561Y-92766561D01*
X68173563Y-93130233D01*
X67948771Y-92980032D01*
X67363500Y-92863614D01*
X66113500Y-92863614D01*
X65973983Y-92891366D01*
X66341679Y-92645679D01*
X66439312Y-92499560D01*
X66521584Y-92417288D01*
X66636607Y-92394409D01*
X67289895Y-91957895D01*
X67726409Y-91304607D01*
X67800127Y-90934000D01*
X69080905Y-90934000D01*
X69264184Y-91056463D01*
G36*
X109959200Y-80396447D02*
X109924917Y-80568800D01*
X109959200Y-80741153D01*
X109959200Y-80741156D01*
X110060737Y-81251615D01*
X110447521Y-81830479D01*
X110593639Y-81928112D01*
X111026001Y-82360474D01*
X111026000Y-87482327D01*
X110844561Y-87603561D01*
X110513032Y-88099729D01*
X110396614Y-88685000D01*
X110396614Y-90385000D01*
X110513032Y-90970271D01*
X110587619Y-91081898D01*
X110382515Y-91551795D01*
X110365210Y-91638803D01*
X109840160Y-91113753D01*
X109746708Y-90973892D01*
X109192653Y-90603685D01*
X108704072Y-90506500D01*
X108704071Y-90506500D01*
X108539100Y-90473685D01*
X108374129Y-90506500D01*
X106386142Y-90506500D01*
X106340393Y-90276500D01*
X106466702Y-89641500D01*
X106340393Y-89006500D01*
X106466702Y-88371500D01*
X106315359Y-87610648D01*
X105884371Y-86965629D01*
X105239352Y-86534641D01*
X104670554Y-86421500D01*
X102686446Y-86421500D01*
X102443500Y-86469825D01*
X102443500Y-86031500D01*
X102268319Y-85250805D01*
X101807714Y-84596576D01*
X101131808Y-84168413D01*
X100798500Y-84074980D01*
X100798500Y-83840707D01*
X102820150Y-81819057D01*
X102932790Y-81743795D01*
X103368537Y-82179542D01*
X104066867Y-82468800D01*
X104822733Y-82468800D01*
X105521063Y-82179542D01*
X106055542Y-81645063D01*
X106344800Y-80946733D01*
X106344800Y-80190867D01*
X106055542Y-79492537D01*
X105521063Y-78958058D01*
X104977866Y-78733058D01*
X104323460Y-78078652D01*
X104230008Y-77938792D01*
X103824336Y-77667731D01*
X103692263Y-77535658D01*
X103098227Y-77289600D01*
X109959201Y-77289600D01*
X109959200Y-80396447D01*
X109959200Y-80396447D01*
G37*
X109959200Y-80396447D02*
X109924917Y-80568800D01*
X109959200Y-80741153D01*
X109959200Y-80741156D01*
X110060737Y-81251615D01*
X110447521Y-81830479D01*
X110593639Y-81928112D01*
X111026001Y-82360474D01*
X111026000Y-87482327D01*
X110844561Y-87603561D01*
X110513032Y-88099729D01*
X110396614Y-88685000D01*
X110396614Y-90385000D01*
X110513032Y-90970271D01*
X110587619Y-91081898D01*
X110382515Y-91551795D01*
X110365210Y-91638803D01*
X109840160Y-91113753D01*
X109746708Y-90973892D01*
X109192653Y-90603685D01*
X108704072Y-90506500D01*
X108704071Y-90506500D01*
X108539100Y-90473685D01*
X108374129Y-90506500D01*
X106386142Y-90506500D01*
X106340393Y-90276500D01*
X106466702Y-89641500D01*
X106340393Y-89006500D01*
X106466702Y-88371500D01*
X106315359Y-87610648D01*
X105884371Y-86965629D01*
X105239352Y-86534641D01*
X104670554Y-86421500D01*
X102686446Y-86421500D01*
X102443500Y-86469825D01*
X102443500Y-86031500D01*
X102268319Y-85250805D01*
X101807714Y-84596576D01*
X101131808Y-84168413D01*
X100798500Y-84074980D01*
X100798500Y-83840707D01*
X102820150Y-81819057D01*
X102932790Y-81743795D01*
X103368537Y-82179542D01*
X104066867Y-82468800D01*
X104822733Y-82468800D01*
X105521063Y-82179542D01*
X106055542Y-81645063D01*
X106344800Y-80946733D01*
X106344800Y-80190867D01*
X106055542Y-79492537D01*
X105521063Y-78958058D01*
X104977866Y-78733058D01*
X104323460Y-78078652D01*
X104230008Y-77938792D01*
X103824336Y-77667731D01*
X103692263Y-77535658D01*
X103098227Y-77289600D01*
X109959201Y-77289600D01*
X109959200Y-80396447D01*
G36*
X86929175Y-73553930D02*
X86266089Y-74242512D01*
X85916987Y-75132431D01*
X86279008Y-75515000D01*
X88278500Y-75515000D01*
X88278500Y-75495000D01*
X88378500Y-75495000D01*
X88378500Y-75515000D01*
X90377992Y-75515000D01*
X90740013Y-75132431D01*
X90390911Y-74242512D01*
X89727825Y-73553930D01*
X89681249Y-73533600D01*
X93654170Y-73533600D01*
X93529600Y-73834340D01*
X93529600Y-74327600D01*
X93929600Y-74727600D01*
X94120659Y-74727600D01*
X94020659Y-74827600D01*
X93929600Y-74827600D01*
X93529600Y-75227600D01*
X93529600Y-75591298D01*
X93478800Y-75713940D01*
X93478800Y-76207200D01*
X93878800Y-76607200D01*
X94071459Y-76607200D01*
X94171459Y-76707200D01*
X93878800Y-76707200D01*
X93478800Y-77107200D01*
X93478800Y-77319000D01*
X90707886Y-77319000D01*
X90707886Y-77255000D01*
X90591468Y-76669729D01*
X90518925Y-76561160D01*
X90740013Y-75997569D01*
X90377992Y-75615000D01*
X88378500Y-75615000D01*
X88378500Y-75635000D01*
X88278500Y-75635000D01*
X88278500Y-75615000D01*
X86279008Y-75615000D01*
X85916987Y-75997569D01*
X86138075Y-76561160D01*
X86065532Y-76669729D01*
X85949114Y-77255000D01*
X85949114Y-78955000D01*
X86065532Y-79540271D01*
X86397061Y-80036439D01*
X86893229Y-80367968D01*
X87478500Y-80484386D01*
X88433100Y-80484386D01*
X88563947Y-80571815D01*
X89052528Y-80669000D01*
X89217500Y-80701815D01*
X89382472Y-80669000D01*
X96456629Y-80669000D01*
X96621600Y-80701815D01*
X96786571Y-80669000D01*
X96786572Y-80669000D01*
X96932365Y-80640000D01*
X97253533Y-80640000D01*
X97951863Y-80350742D01*
X98486342Y-79816263D01*
X98652562Y-79414974D01*
X98753234Y-79658018D01*
X98965005Y-79869789D01*
X97281051Y-81553742D01*
X97141193Y-81647192D01*
X96770985Y-82201247D01*
X96701335Y-82551400D01*
X90588972Y-82551400D01*
X90424000Y-82518585D01*
X90259029Y-82551400D01*
X90259028Y-82551400D01*
X89770447Y-82648585D01*
X89216392Y-83018792D01*
X89140088Y-83132990D01*
X89025893Y-83209292D01*
X88680454Y-83726280D01*
X88655685Y-83763349D01*
X88574669Y-84170641D01*
X88202648Y-84244641D01*
X87806167Y-84509562D01*
X87385463Y-84088858D01*
X86687133Y-83799600D01*
X85931267Y-83799600D01*
X85706939Y-83892520D01*
X85808886Y-83380000D01*
X85808886Y-81880000D01*
X85692468Y-81294729D01*
X85682626Y-81280000D01*
X85692468Y-81265271D01*
X85808886Y-80680000D01*
X85808886Y-79180000D01*
X85692468Y-78594729D01*
X85662247Y-78549500D01*
X85692468Y-78504271D01*
X85808886Y-77919000D01*
X85808886Y-76419000D01*
X85692468Y-75833729D01*
X85682626Y-75819000D01*
X85692468Y-75804271D01*
X85808886Y-75219000D01*
X85808886Y-73719000D01*
X85772008Y-73533600D01*
X86975751Y-73533600D01*
X86929175Y-73553930D01*
X86929175Y-73553930D01*
G37*
X86929175Y-73553930D02*
X86266089Y-74242512D01*
X85916987Y-75132431D01*
X86279008Y-75515000D01*
X88278500Y-75515000D01*
X88278500Y-75495000D01*
X88378500Y-75495000D01*
X88378500Y-75515000D01*
X90377992Y-75515000D01*
X90740013Y-75132431D01*
X90390911Y-74242512D01*
X89727825Y-73553930D01*
X89681249Y-73533600D01*
X93654170Y-73533600D01*
X93529600Y-73834340D01*
X93529600Y-74327600D01*
X93929600Y-74727600D01*
X94120659Y-74727600D01*
X94020659Y-74827600D01*
X93929600Y-74827600D01*
X93529600Y-75227600D01*
X93529600Y-75591298D01*
X93478800Y-75713940D01*
X93478800Y-76207200D01*
X93878800Y-76607200D01*
X94071459Y-76607200D01*
X94171459Y-76707200D01*
X93878800Y-76707200D01*
X93478800Y-77107200D01*
X93478800Y-77319000D01*
X90707886Y-77319000D01*
X90707886Y-77255000D01*
X90591468Y-76669729D01*
X90518925Y-76561160D01*
X90740013Y-75997569D01*
X90377992Y-75615000D01*
X88378500Y-75615000D01*
X88378500Y-75635000D01*
X88278500Y-75635000D01*
X88278500Y-75615000D01*
X86279008Y-75615000D01*
X85916987Y-75997569D01*
X86138075Y-76561160D01*
X86065532Y-76669729D01*
X85949114Y-77255000D01*
X85949114Y-78955000D01*
X86065532Y-79540271D01*
X86397061Y-80036439D01*
X86893229Y-80367968D01*
X87478500Y-80484386D01*
X88433100Y-80484386D01*
X88563947Y-80571815D01*
X89052528Y-80669000D01*
X89217500Y-80701815D01*
X89382472Y-80669000D01*
X96456629Y-80669000D01*
X96621600Y-80701815D01*
X96786571Y-80669000D01*
X96786572Y-80669000D01*
X96932365Y-80640000D01*
X97253533Y-80640000D01*
X97951863Y-80350742D01*
X98486342Y-79816263D01*
X98652562Y-79414974D01*
X98753234Y-79658018D01*
X98965005Y-79869789D01*
X97281051Y-81553742D01*
X97141193Y-81647192D01*
X96770985Y-82201247D01*
X96701335Y-82551400D01*
X90588972Y-82551400D01*
X90424000Y-82518585D01*
X90259029Y-82551400D01*
X90259028Y-82551400D01*
X89770447Y-82648585D01*
X89216392Y-83018792D01*
X89140088Y-83132990D01*
X89025893Y-83209292D01*
X88680454Y-83726280D01*
X88655685Y-83763349D01*
X88574669Y-84170641D01*
X88202648Y-84244641D01*
X87806167Y-84509562D01*
X87385463Y-84088858D01*
X86687133Y-83799600D01*
X85931267Y-83799600D01*
X85706939Y-83892520D01*
X85808886Y-83380000D01*
X85808886Y-81880000D01*
X85692468Y-81294729D01*
X85682626Y-81280000D01*
X85692468Y-81265271D01*
X85808886Y-80680000D01*
X85808886Y-79180000D01*
X85692468Y-78594729D01*
X85662247Y-78549500D01*
X85692468Y-78504271D01*
X85808886Y-77919000D01*
X85808886Y-76419000D01*
X85692468Y-75833729D01*
X85682626Y-75819000D01*
X85692468Y-75804271D01*
X85808886Y-75219000D01*
X85808886Y-73719000D01*
X85772008Y-73533600D01*
X86975751Y-73533600D01*
X86929175Y-73553930D01*
G36*
X95829598Y-76727200D02*
X95778800Y-76727200D01*
X95778800Y-76707200D01*
X95725000Y-76707200D01*
X95829598Y-76602602D01*
X95829598Y-76727200D01*
X95829598Y-76727200D01*
G37*
X95829598Y-76727200D02*
X95778800Y-76727200D01*
X95778800Y-76707200D01*
X95725000Y-76707200D01*
X95829598Y-76602602D01*
X95829598Y-76727200D01*
G36*
X95929600Y-74727600D02*
X95949600Y-74727600D01*
X95949600Y-74761400D01*
X95878802Y-74832198D01*
X95878802Y-74707600D01*
X95929600Y-74707600D01*
X95929600Y-74727600D01*
X95929600Y-74727600D01*
G37*
X95929600Y-74727600D02*
X95949600Y-74727600D01*
X95949600Y-74761400D01*
X95878802Y-74832198D01*
X95878802Y-74707600D01*
X95929600Y-74707600D01*
X95929600Y-74727600D01*
G36*
X95778798Y-74827600D02*
X95774200Y-74827600D01*
X95674200Y-74727600D01*
X95778798Y-74727600D01*
X95778798Y-74827600D01*
X95778798Y-74827600D01*
G37*
X95778798Y-74827600D02*
X95774200Y-74827600D01*
X95674200Y-74727600D01*
X95778798Y-74727600D01*
X95778798Y-74827600D01*
G04 #@! TD*
M02*
