G04 #@! TF.GenerationSoftware,KiCad,Pcbnew,5.0.0-1.fc29*
G04 #@! TF.CreationDate,2018-08-25T23:53:58+05:30*
G04 #@! TF.ProjectId,medlo,6D65646C6F2E6B696361645F70636200,rev?*
G04 #@! TF.SameCoordinates,Original*
G04 #@! TF.FileFunction,Legend,Bot*
G04 #@! TF.FilePolarity,Positive*
%FSLAX46Y46*%
G04 Gerber Fmt 4.6, Leading zero omitted, Abs format (unit mm)*
G04 Created by KiCad (PCBNEW 5.0.0-1.fc29) date Sat Aug 25 23:53:58 2018*
%MOMM*%
%LPD*%
G01*
G04 APERTURE LIST*
%ADD10C,0.120000*%
%ADD11C,0.150000*%
G04 APERTURE END LIST*
D10*
G04 #@! TO.C,J4*
X95457000Y-71742000D02*
X94957000Y-71642000D01*
X96757000Y-72042000D02*
X95457000Y-71742000D01*
X98257000Y-72242000D02*
X96757000Y-72042000D01*
X99557000Y-72342000D02*
X98257000Y-72242000D01*
X101357000Y-72342000D02*
X99557000Y-72342000D01*
X102657000Y-72242000D02*
X101357000Y-72342000D01*
X103457000Y-72142000D02*
X102657000Y-72242000D01*
X105157000Y-71842000D02*
X103457000Y-72142000D01*
X105957000Y-71642000D02*
X105157000Y-71842000D01*
X105457000Y-71042000D02*
X95457000Y-71042000D01*
X94957000Y-71542000D02*
G75*
G02X95457000Y-71042000I500000J0D01*
G01*
X105957000Y-72542000D02*
X105957000Y-71542000D01*
X94957000Y-72542000D02*
X94957000Y-71542000D01*
X107367000Y-72542000D02*
X93547000Y-72542000D01*
X93547000Y-86462000D02*
X107367000Y-86462000D01*
X93547000Y-83762000D02*
X93547000Y-86462000D01*
X105457000Y-71042000D02*
G75*
G02X105957000Y-71542000I0J-500000D01*
G01*
X93547000Y-72542000D02*
X93547000Y-72942000D01*
X93547000Y-75462000D02*
X93547000Y-81242000D01*
X107367000Y-83762000D02*
X107367000Y-86462000D01*
X107367000Y-75462000D02*
X107367000Y-81242000D01*
X107367000Y-72542000D02*
X107367000Y-72942000D01*
G04 #@! TO.C,RN1*
X110244000Y-79759600D02*
X111244000Y-79759600D01*
X110244000Y-76399600D02*
X111244000Y-76399600D01*
G04 #@! TO.C,C10*
X66667000Y-103085000D02*
X65667000Y-103085000D01*
X65667000Y-101385000D02*
X66667000Y-101385000D01*
G04 #@! TO.C,U4*
X66537000Y-103355500D02*
X68337000Y-103355500D01*
X68337000Y-106575500D02*
X65887000Y-106575500D01*
G04 #@! TO.C,C11*
X86513500Y-100867500D02*
X81013500Y-100867500D01*
X86513500Y-102967500D02*
X81013500Y-102967500D01*
X86513500Y-100867500D02*
X86513500Y-102967500D01*
G04 #@! TO.C,J4*
D11*
X100917333Y-82319880D02*
X100917333Y-83034166D01*
X100964952Y-83177023D01*
X101060190Y-83272261D01*
X101203047Y-83319880D01*
X101298285Y-83319880D01*
X100012571Y-82653214D02*
X100012571Y-83319880D01*
X100250666Y-82272261D02*
X100488761Y-82986547D01*
X99869714Y-82986547D01*
G04 #@! TO.C,RN1*
X111497976Y-81351380D02*
X111831309Y-80875190D01*
X112069404Y-81351380D02*
X112069404Y-80351380D01*
X111688452Y-80351380D01*
X111593214Y-80399000D01*
X111545595Y-80446619D01*
X111497976Y-80541857D01*
X111497976Y-80684714D01*
X111545595Y-80779952D01*
X111593214Y-80827571D01*
X111688452Y-80875190D01*
X112069404Y-80875190D01*
X111069404Y-81351380D02*
X111069404Y-80351380D01*
X110497976Y-81351380D01*
X110497976Y-80351380D01*
X109497976Y-81351380D02*
X110069404Y-81351380D01*
X109783690Y-81351380D02*
X109783690Y-80351380D01*
X109878928Y-80494238D01*
X109974166Y-80589476D01*
X110069404Y-80637095D01*
G04 #@! TO.C,C10*
X66682857Y-101195142D02*
X66730476Y-101242761D01*
X66873333Y-101290380D01*
X66968571Y-101290380D01*
X67111428Y-101242761D01*
X67206666Y-101147523D01*
X67254285Y-101052285D01*
X67301904Y-100861809D01*
X67301904Y-100718952D01*
X67254285Y-100528476D01*
X67206666Y-100433238D01*
X67111428Y-100338000D01*
X66968571Y-100290380D01*
X66873333Y-100290380D01*
X66730476Y-100338000D01*
X66682857Y-100385619D01*
X65730476Y-101290380D02*
X66301904Y-101290380D01*
X66016190Y-101290380D02*
X66016190Y-100290380D01*
X66111428Y-100433238D01*
X66206666Y-100528476D01*
X66301904Y-100576095D01*
X65111428Y-100290380D02*
X65016190Y-100290380D01*
X64920952Y-100338000D01*
X64873333Y-100385619D01*
X64825714Y-100480857D01*
X64778095Y-100671333D01*
X64778095Y-100909428D01*
X64825714Y-101099904D01*
X64873333Y-101195142D01*
X64920952Y-101242761D01*
X65016190Y-101290380D01*
X65111428Y-101290380D01*
X65206666Y-101242761D01*
X65254285Y-101195142D01*
X65301904Y-101099904D01*
X65349523Y-100909428D01*
X65349523Y-100671333D01*
X65301904Y-100480857D01*
X65254285Y-100385619D01*
X65206666Y-100338000D01*
X65111428Y-100290380D01*
G04 #@! TO.C,U4*
X71119904Y-105751380D02*
X71119904Y-106560904D01*
X71072285Y-106656142D01*
X71024666Y-106703761D01*
X70929428Y-106751380D01*
X70738952Y-106751380D01*
X70643714Y-106703761D01*
X70596095Y-106656142D01*
X70548476Y-106560904D01*
X70548476Y-105751380D01*
X69643714Y-106084714D02*
X69643714Y-106751380D01*
X69881809Y-105703761D02*
X70119904Y-106418047D01*
X69500857Y-106418047D01*
G04 #@! TO.C,C11*
X83256357Y-99724642D02*
X83303976Y-99772261D01*
X83446833Y-99819880D01*
X83542071Y-99819880D01*
X83684928Y-99772261D01*
X83780166Y-99677023D01*
X83827785Y-99581785D01*
X83875404Y-99391309D01*
X83875404Y-99248452D01*
X83827785Y-99057976D01*
X83780166Y-98962738D01*
X83684928Y-98867500D01*
X83542071Y-98819880D01*
X83446833Y-98819880D01*
X83303976Y-98867500D01*
X83256357Y-98915119D01*
X82303976Y-99819880D02*
X82875404Y-99819880D01*
X82589690Y-99819880D02*
X82589690Y-98819880D01*
X82684928Y-98962738D01*
X82780166Y-99057976D01*
X82875404Y-99105595D01*
X81351595Y-99819880D02*
X81923023Y-99819880D01*
X81637309Y-99819880D02*
X81637309Y-98819880D01*
X81732547Y-98962738D01*
X81827785Y-99057976D01*
X81923023Y-99105595D01*
G04 #@! TD*
M02*
